<?xml version="1.0" standalone="no"?>
<!DOCTYPE svg PUBLIC "-//W3C//DTD SVG 1.1//EN" "http://www.w3.org/Graphics/SVG/1.1/DTD/svg11.dtd" >
<svg xmlns="http://www.w3.org/2000/svg">
<metadata></metadata>
<defs>
<font id="sweet_pineappleregular" horiz-adv-x="589" >
<font-face units-per-em="2048" ascent="1536" descent="-512" />
<missing-glyph horiz-adv-x="819" />
<glyph horiz-adv-x="0" />
<glyph horiz-adv-x="682" />
<glyph unicode=" "  horiz-adv-x="819" />
<glyph unicode="&#x09;" horiz-adv-x="819" />
<glyph unicode="&#xa0;" horiz-adv-x="819" />
<glyph unicode="!" horiz-adv-x="595" d="M66 1411q30 -161 30 -260q0 -59 15 -121q14 -59 32 -272q1 -14 5.5 -42t5 -40t-1.5 -41q-3 -20 1.5 -35t11 -22.5t21 -21.5t23.5 -24q5 -6 31.5 -45t62.5 -75q30 -30 58.5 1t33.5 79q29 281 39 346q13 87 29 182.5t37.5 218t31.5 182.5q6 42 -6 56.5t-53 13.5 q-34 0 -107.5 -2.5t-129 -1.5t-107.5 8q-42 7 -58 -14.5t-5 -69.5zM102 131q0 -25 7 -57q6 -40 44.5 -81t69.5 -40q109 3 161 68.5t44 166.5q-3 39 -53.5 90t-83.5 44q-91 -19 -158 -89q-31 -31 -31 -102zM184 1360q-3 19 5 25.5t26 3.5t37 -3q22 4 60.5 2t58.5 1 q35 6 42 -2t1 -44q-6 -37 -19.5 -110.5t-19.5 -110.5q-55 -362 -68 -495q0 -17 -2 -25q-1 -2 -4.5 -11t-5.5 -11q-4 -1 -7.5 1.5t-6.5 7t-5 5.5q-15 11 -23.5 24.5t-11 31.5t-3 29t1.5 33.5t2 28.5q4 107 -33 334q-8 47 -12.5 142.5t-12.5 142.5zM203 135q0 28 18 51t41 23 q23 1 43.5 -21t20.5 -47q0 -71 -64 -71q-34 0 -46.5 14t-12.5 51z" />
<glyph unicode="&#x22;" horiz-adv-x="600" d="M62 1263.5q0 31.5 8 53.5q32 98 96 98q25 0 44 -13t29 -37t16.5 -50t7.5 -60.5t1 -59t-1 -55.5t-1 -40q0 -30 -1 -89t-1 -89q0 -87 -33 -127q-11 -17 -41 -4q-29 13 -46 53t-23 82q-13 90 -27 172q-2 11 -11 50t-13 61.5t-4 54zM314 1245.5q-2 30.5 5.5 71.5t28.5 67 q29 32 74 30.5t76 -30.5q22 -21 31.5 -62.5t9 -74.5t-4.5 -88t-4 -69q-1 -27 -4 -79t-4 -79q0 -82 -18 -115q-21 -38 -64 -36t-67 36q-7 10 -11.5 22t-7 26.5t-4 24.5t-2.5 28t-2 24q-2 25 -7 74.5t-7 73.5q-1 16 -8.5 70.5t-9.5 85z" />
<glyph unicode="#" horiz-adv-x="993" d="M61 412q0 -44 43 -52q14 -3 30 -3.5t26.5 0t30 2t28.5 1.5q59 3 66.5 -5.5t-4.5 -65.5q-5 -20 -13.5 -64t-17 -76.5t-19.5 -62.5q-1 -3 -5 -14t-5 -15t-3.5 -13t-3 -15t-0.5 -14.5t1 -16.5q5 -20 13.5 -29t27.5 -12q34 -3 45 29q8 18 14 37t11.5 41.5t9 37.5t9 43t7.5 39 q32 130 37 148q4 14 13.5 20t18 5.5t22.5 -3t20 -2.5q13 -1 15.5 -7t-2.5 -18.5t-5 -13.5l-63 -284q-7 -29 4.5 -51t36.5 -27q29 -6 41.5 4.5t19.5 48.5q5 28 28 139.5t33 171.5q5 23 16 33t34 10q27 0 106.5 5t122.5 2q23 -3 33 12q12 25 0 37q-35 49 -78 49 q-119 0 -143 -2q-41 -4 -46 5.5t9 45.5q9 23 34 23q51 -2 76 -1.5t76 3.5t76 4q35 4 43 18q5 3 2.5 10.5t-4 10t-7 9.5t-6.5 9q-27 46 -81 37q-7 -2 -16 -2t-20 1t-16 1h-84q-24 -1 -30 8t2 31q52 143 78 262q6 20 -11 49.5t-37 32.5q-26 4 -36.5 -10t-16.5 -41 q-8 -30 -39 -127.5t-41 -151.5q-9 -45 -19.5 -53t-58.5 -8q-16 0 -21 5.5t-1 22.5q25 114 45 189q2 6 9.5 29.5t9 33.5t2 28t-8.5 32.5t-26 27.5q-42 31 -56 -14q-39 -141 -75 -295q-11 -44 -20 -51.5t-52 -7.5q-63 0 -160 22q-32 5 -43 -10q-16 -25 -4 -45q15 -27 43 -35 q63 -20 158 -27q2 0 7 -0.5t7 -1t6.5 -1t6 -1.5t5 -3t3 -4.5t1.5 -6t-1 -8.5q-1 -3 -2 -16t-3 -18.5t-9.5 -11.5t-20.5 -5q-34 2 -97 -2t-86 -4q-45 0 -45 -37zM414 471q0 24 13 40t32 15q5 0 22 2.5t26 -1t11 -19.5q4 -29 -10.5 -42t-50.5 -15q-7 3 -16 0t-17.5 0.5 t-9.5 19.5z" />
<glyph unicode="$" horiz-adv-x="1032" d="M61 229q0 -18 2 -26q8 -14 21 -41t25 -49t24 -41q11 -17 26 -32t28 -24t35 -19.5t34.5 -15t39 -13.5t36.5 -13q20 -9 24 -17.5t-2 -27.5q-9 -29 -12 -68q-3 -41 37 -51q36 -12 53 27l8.5 17t9 19.5t5.5 16.5q13 49 24 57t62 6l184 17q68 1 126 46t88.5 107.5t29.5 122.5 q0 33 -17 107q-47 176 -178 239q-62 28 -143 31q-21 0 -28 7.5t-1 27.5q7 28 14 70q45 202 78 364q6 21 25 21q38 0 90 -48.5t57 -87.5q8 -61 27 -92q17 -26 49 -22q10 0 19.5 6t9.5 16q-1 13 -1.5 38.5t-1.5 41.5t-6.5 36.5t-15.5 35.5q-81 120 -192 164q-18 8 -23 17t0 28 l37 135q8 31 -7 60t-42 32q-12 1 -20 -2t-12 -10t-5.5 -13.5t-3 -17.5t-2.5 -16q-26 -83 -43 -158q-8 -28 -41 -33q-120 -11 -186 -63q-161 -128 -213 -342q-21 -98 15 -169t142 -85q30 -4 90 -8q20 -2 27.5 -10t3.5 -29q-76 -401 -82 -432q-5 -35 -39 -21q-64 31 -71 33 q-65 22 -93 80q-7 17 -23.5 47.5t-23.5 46.5q-8 16 -21.5 26t-27.5 7q-29 -8 -29 -56zM289 688q-7 68 16 107q15 27 21 57q7 32 25.5 63t35 49.5t45.5 47.5q68 68 125 86q33 11 33 -23q-7 -39 -24.5 -127t-26.5 -135l-31 -156q-3 -20 -13 -28t-32 -4q-22 6 -67.5 9t-67.5 9 q-36 9 -39 45zM495.5 39q-5.5 9 0.5 29q18 82 46 237.5t33 181.5q1 9 2.5 14.5t7.5 10t15 2.5q16 -3 49 -5.5t59 -8t48 -19.5q64 -38 80 -96q21 -69 28 -127q1 -72 -42 -131.5t-103 -71.5q-58 -13 -187 -26q-15 -2 -23 -0.5t-13.5 10.5z" />
<glyph unicode="%" horiz-adv-x="1220" d="M61 -66q4 -29 27 -26q18 2 54 3.5t57 4t49.5 10t52 25.5t43.5 47q36 52 145 202.5t166 233.5q30 44 344 508q71 101 152 242q17 26 -2 55q-3 5 -6 8t-7 4t-6.5 1t-7 -1.5t-6.5 -2.5l-7 -3.5l-7 -3.5q-7 -3 -13.5 -7.5t-12.5 -10.5l-10 -10t-10 -12.5t-8 -12t-8.5 -13.5 t-7.5 -12q-43 -76 -102 -116q-182 -126 -422 -117q-51 0 -64 22q-16 27 -43 30t-51 -5q-27 -5 -52 -19.5t-38.5 -27.5t-38.5 -39q-114 -125 -92 -307q2 -16 23 -41q20 -20 41 -35q46 -29 99 -32.5t101 24.5q18 13 41 32q7 5 37 35q15 15 27 43q34 94 26 174q-6 22 11 25 q77 8 108 10q12 0 13 -9.5t-5 -16.5q-29 -37 -84 -112t-84 -112l-225 -307q-93 -113 -170 -229q-30 -51 -27 -99zM189 19q-3 7 22 47q31 47 100.5 131.5t77.5 95.5q42 51 84.5 110t96 137.5t79.5 114.5q50 73 103 158q40 61 92 68q2 1 8.5 4.5t9 3t8.5 -5.5q3 -6 -8 -23 q-18 -25 -50.5 -72.5t-47.5 -68.5q-93 -122 -215 -309q-18 -26 -56 -78.5t-57 -79.5q-27 -42 -88.5 -118.5t-87.5 -115.5q-12 -16 -20 -14q-2 2 -4 2q-44 6 -47 13zM223 670q3 34 6 54.5t11.5 47t25 47t41.5 35.5l6 3t5.5 3t5 2t6 1t6 -1.5t6.5 -3.5q86 -64 86 -137 q0 -30 -8 -57q-15 -51 -55.5 -77.5t-88.5 -4.5q-56 22 -53 88zM597 146q0 -9 2 -21t9 -21t19 -16q70 -37 209 -45q29 0 45 16q6 6 26 26.5t28 29t23.5 27.5t23.5 32.5t16 33.5t12 40q12 60 -18 116t-87 82.5t-114 6.5q-87 -29 -144.5 -96t-46.5 -164q0 -8 -1.5 -23t-1.5 -24 zM675.5 188q-0.5 4 0 13t0.5 12q5 59 27 90.5t71 48.5q41 13 87.5 -1.5t58.5 -43.5q10 -29 -15.5 -79.5t-58.5 -69.5q-24 -13 -52 -14t-47.5 3.5t-50.5 14.5q-8 2 -12.5 6t-6 10t-2 10z" />
<glyph unicode="&#x26;" horiz-adv-x="1282" d="M63 240q3 -112 84 -193q108 -108 322 -104q120 0 287 67q19 8 30 4.5t21 -20.5q54 -87 74 -111q30 -38 69 -12q11 7 65 36t77 52q19 19 15.5 43.5t-20.5 45.5t-33.5 45t-24 42t8.5 35q22 24 62 78q24 36 56 115.5t56 115.5q22 34 -16 60q-30 21 -70 18l-135 -18 q-25 -4 -37.5 -21t-7.5 -39q9 -45 60 -39q14 1 63 11q13 1 17 -4t-1 -19q-43 -106 -90 -160q-21 -25 -28 -25t-25 29q-132 208 -270 488q-18 34 -14 43.5t40 19.5q14 4 28.5 8.5t30 11t26.5 10.5t28.5 12.5t26.5 12.5t28.5 13.5t25.5 12.5t28 14.5t26 13.5q57 32 72 98 q6 22 6 88q0 68 -14 109q-38 104 -103 135q-136 58 -282 2q-22 -9 -60 -33.5t-55 -32.5q-90 -45 -127 -151q-49 -136 2 -293q11 -37 -20 -51q-184 -96 -250 -277q-60 -157 -52 -286zM145 272q-5 136 62.5 257t187.5 186q26 13 37 -15q9 -21 42 -97.5t55.5 -125t48.5 -94.5 q12 -24 51.5 -115t70.5 -135q12 -17 8.5 -25.5t-22.5 -13.5q-139 -50 -260 -45q-84 7 -117 17q-86 28 -123.5 74t-40.5 132zM438 1018q7 105 60 166l4 6q5 6 8 7t8 -1q9 -5 4 -20q-20 -160 21 -285q4 -14 -1.5 -20.5t-20.5 -9.5t-19 -5q-26 -16 -33 14q-2 12 -15.5 66.5 t-15.5 81.5zM521.5 761.5q12.5 18.5 47.5 18.5q11 0 19 -20q30 -63 67.5 -133t84 -154t71.5 -131q7 -14 78 -121q6 -8 14 -24q0 -9 -8 -17q-47 -27 -78 -35q-5 -3 -10.5 -0.5t-7 4.5t-5.5 6.5t-6 6.5q-18 21 -32.5 46.5t-30.5 63.5t-23 52q-13 28 -56.5 117.5t-71 150 t-52.5 119.5q-13 32 -0.5 50.5zM588 1055q3 96 14 128q3 11 8 21q52 105 178 86q44 -6 74.5 -24.5t45.5 -47t21 -57t7 -65.5q3 -73 -64 -103q-145 -63 -215 -88q-18 -8 -31.5 -3t-17.5 28q-22 91 -20 125zM881 55q-1 5 0.5 8.5t6.5 7t9 5.5l11 5.5t10 4.5q34 17 42 15 t27 -33q5 -8 17.5 -25t13.5 -18q-6 -15 -33 -33q-1 -1 -10 -6.5t-13 -8t-11 -5.5t-12.5 -2t-10.5 5q-41 32 -47 80z" />
<glyph unicode="'" horiz-adv-x="325" d="M62 1263.5q0 31.5 8 53.5q32 98 96 98q25 0 44 -13t29 -37t16.5 -50t7.5 -60.5t1 -59t-1 -55.5t-1 -40q0 -30 -1 -89t-1 -89q0 -87 -33 -127q-11 -17 -41 -4q-29 13 -46 53t-23 82q-13 90 -27 172q-2 11 -11 50t-13 61.5t-4 54z" />
<glyph unicode="(" horiz-adv-x="585" d="M61 408q1 -112 28.5 -192.5t84.5 -145.5q67 -79 133 -90q34 -7 45 20q9 36 -26 47q-61 18 -109 84q-122 166 -70 387q30 144 86 250q27 53 51 91.5t57 80t75 71.5t92 48q24 11 12 43q-7 24 -33 14q-82 -27 -147 -92q-148 -148 -213 -338q-63 -174 -66 -278z" />
<glyph unicode=")" horiz-adv-x="389" d="M65 -18q4 -8 21 -17q28 -17 49 12q79 94 107 170q86 258 86 455q0 127 -43 289q-29 116 -101 194q-19 20 -29.5 21t-29.5 -14q-25 -21 4 -54q55 -66 72 -118q59 -178 51 -349q1 -22 -0.5 -44.5t-6 -51.5t-8 -45t-12 -53t-10.5 -47q-30 -139 -68 -215q-8 -18 -19 -33.5 t-31 -40.5t-25 -31q-11 -20 -7 -28z" />
<glyph unicode="*" horiz-adv-x="819" d="M61 895q4 -13 27 -18q29 0 43 2q18 1 75.5 6t88.5 4q1 0 3.5 0.5t4 0.5h3.5t3 -1.5t2 -3.5q2 -7 -6 -15q-26 -29 -64.5 -89t-56.5 -83q-20 -30 4 -43q15 -9 31.5 -5.5t22.5 18.5q7 18 22 41q11 18 72 108q6 12 14 8q4 -1 4 -14q2 -4 2 -14q3 -114 -8 -215q-4 -35 25 -35 q18 -2 27 3.5t10 22.5q1 13 4 35t4 31q5 143 2 182q0 1 -1 6t0 8t5 5q4 3 16 -9q14 -16 54 -48t57 -54q13 -18 45 -10q4 1 7 2.5t4.5 6t2 6.5t1.5 8.5t1 7.5v9.5t-2 8.5l-3.5 7t-5 6.5l-5 5t-6.5 5.5t-6 5q-57 46 -86 77q-3 2 -5 6t-1 5q0 6 10 6q31 -1 95 5t97 5 q24 -4 39 -2q30 4 25 27q-2 15 -7.5 22t-21.5 6h-65q-20 -1 -61 -3.5t-61 -3t-61 0.5q-13 0 -15.5 4t5.5 17q15 20 42.5 62.5t41.5 62.5q28 46 39 67q14 25 -8 41q-17 12 -35 -10q-7 -7 -19 -23q-21 -30 -58 -87.5t-44 -67.5l-4 -6q-3 -7 -5.5 -9t-6.5 0q-6 1 -6 23 q3 43 -1.5 123.5t-3.5 114.5q0 28 -20 32q-19 2 -35 -22q-4 -5 -4 -27v-106v-111q0 -1 0.5 -5t0.5 -6t-1 -5t-4 -4q-5 -1 -7 0t-5.5 5t-5.5 5q-94 85 -129 114q-31 22 -56 -6q-19 -21 10 -43l125 -110q13 -13 13 -17q-1 -4 -3.5 -5.5t-4.5 -1.5t-6.5 0.5t-6.5 0.5 q-37 -10 -147 -14q-28 -5 -37 -10q-21 -13 -19 -29z" />
<glyph unicode="," horiz-adv-x="311" d="M63 18.5q-5 26.5 7 47.5q4 10 16 19.5t23 12.5q31 4 51 -2q51 -15 73 -35q19 -18 17 -47t-17 -53q-22 -63 -60 -118.5t-58 -55.5q53 95 59 156q-40 3 -65 16q-22 16 -23 18q-18 15 -23 41.5z" />
<glyph unicode="-" d="M66 641q9 -27 21.5 -36t41.5 -9q187 4 281 -6q8 -1 49 4q27 4 45.5 25t23.5 49q3 31 -13 44.5t-44 10.5q-62 -8 -199 -4q-15 -1 -81 0t-85 -6q-28 -6 -38.5 -26t-1.5 -46z" />
<glyph unicode="." horiz-adv-x="311" d="M63 6q5 -25 23 -43q9 -9 23 -16q30 -15 77 -19q28 -4 41 9q17 23 21 56.5t-15 55.5q-19 17 -73 33q-22 9 -51 2q-10 -1 -22 -11t-17 -20q-12 -22 -7 -47z" />
<glyph unicode="/" horiz-adv-x="659" d="M73 91q-30 -197 13 -189q9 2 20 12q4 4 17 14.5t20.5 20t10.5 20.5q2 11 6 22.5t9.5 24.5t8.5 21q45 117 139 342.5t136 333.5q7 16 21 54.5t36.5 101.5t41.5 128t33 125t13.5 102t-18.5 50q-17 8 -48 -44t-67 -137.5t-68 -169t-60 -160t-34 -89.5q-28 -71 -99.5 -216.5 t-101.5 -224.5q-10 -23 -29 -142z" />
<glyph unicode="0" horiz-adv-x="1138" d="M68 670q-20 -204 20 -375q36 -144 156 -248q113 -100 309 -72q53 7 110.5 27.5t93 38.5t99.5 53q66 37 125 125q56 92 74 195.5t20 244.5q5 56 -8 199q-1 9 -3.5 39.5t-4 44t-4.5 37.5t-7.5 43t-11.5 37q-80 239 -278 373q-138 95 -287 16q-95 -51 -162 -133t-123 -195 q-99 -190 -118 -450zM137 512v20q3 339 127 586q36 68 90 125q1 1 4 5t4.5 5t5 2.5t5.5 -0.5q1 0 1 -6.5t-1 -11.5q-7 -46 -28 -163t-30 -181q-5 -31 -6 -63t0.5 -77t1.5 -63q0 -63 -4.5 -174t-6 -174.5t4.5 -175.5q5 -24 -8 -29q-6 -3 -11 0t-9.5 9t-6.5 8q-74 64 -101 150 t-32 208zM396.5 214.5q-0.5 26.5 1 62t1.5 51.5q2 65 4 245.5t5 278.5q2 39 8.5 85.5t12.5 79.5t16.5 87.5t15.5 81.5q11 67 55 102.5t119 61.5q35 10 70 -11q189 -121 233 -331q70 -349 -2 -617q-41 -155 -162 -221q-64 -35 -92.5 -50t-83.5 -31t-104 -13q-64 3 -75.5 15 t-17.5 73q-4 24 -4.5 50.5zM569 739q-8 -27 5 -61.5t36 -46.5q12 -7 25.5 -6.5t19.5 2.5t23.5 12.5t19.5 11.5q42 24 35 80v19q2 32 -16 57t-47 31q-54 11 -82 -47q-13 -27 -19 -52z" />
<glyph unicode="1" horiz-adv-x="831" d="M61 1145q0 -23 21.5 -41.5t46.5 -18.5q26 0 53 5.5t47 11t49.5 18.5t44 20t48 24t43.5 22q19 8 21.5 5.5t4.5 -22.5q3 -78 3.5 -102.5t-2.5 -103.5t-3 -103q-6 -336 -47 -678q-1 -9 1 -27.5t-0.5 -31.5t-14.5 -19q-20 -10 -84 -6q-27 3 -39.5 -13.5t-3.5 -43.5 q7 -19 22.5 -30t29.5 -13.5t36 -3.5q25 -1 97 -4t98.5 -2.5t99.5 4.5h74q30 -1 43 15t18 46q4 9 1 16t-5 11t-9 7t-11.5 4t-12.5 2.5t-12 2.5q-30 5 -39 2q-27 -4 -33 5.5t-4 35.5q8 93 8 211q0 61 2.5 128.5t7.5 154.5t7 129q3 61 13 184.5t13 186.5q9 225 4 307v6.5v6.5 v5.5t-0.5 5.5t-1 5t-1.5 5t-2.5 4.5t-3.5 4t-5 3.5t-6 3q-34 15 -53 -14q-46 -61 -166 -144q-87 -61 -159 -98t-153 -51q-55 -5 -61 -8q-1 -1 -6 -3.5t-7 -4t-5.5 -5t-5 -7.5t-1.5 -9zM469 116.5v4.5v5v5q2 28 7 86t7 86q19 258 25 324q8 74 9 213.5t5 201.5q1 41 1 55.5 t-2 55.5t-3 55q0 29 25.5 61.5t54.5 41.5q3 1 6 1t4.5 -0.5t3 -2.5t2.5 -2.5t1.5 -3.5t1 -4t1 -4.5t0.5 -4.5v-94q-28 -355 -30 -414q-2 -46 -7 -136.5t-8 -162.5t-2 -137q0 -129 -10 -178q0 -17 -2 -25q-1 -5 4 -23.5t-4 -19.5q-20 -12 -72 -4q-3 0 -6 1t-4.5 2.5l-3 3 t-2.5 4.5l-1.5 4.5t-0.5 5z" />
<glyph unicode="2" horiz-adv-x="1116" d="M70 47q-9 -40 2.5 -59t48.5 -27q13 -2 37 2q83 19 106 19h551q134 -9 191 6q23 6 37.5 27t11.5 44q-3 20 -25 32t-47 7q-68 -12 -238 -8q-235 11 -503 8q-3 0 -9.5 -2t-10.5 -2t-7 4q-5 8 10 27q37 49 123 139q135 140 357 314q14 11 47.5 34t52 37t43.5 36t43 46.5 t31 52.5q90 198 82 383q-3 90 -51 154t-132 115q-167 101 -420 57q-206 -31 -292 -211l-37 -86q-36 -76 47 -88q26 -4 74.5 2.5t68.5 5.5q47 -3 47 39q3 45 -45 55q-16 4 -47 4q-45 -3 -18 35q57 85 166 125q97 39 186.5 1t126.5 -142q69 -192 35 -383q-26 -154 -113 -211 q-72 -49 -199 -164q-178 -162 -262 -278q-51 -69 -69 -150zM771 1317.5q0 1.5 1.5 3t3.5 2.5q1 1 7.5 -2t9.5 -6q117 -105 102 -221q5 -65 -12 -124.5t-52 -131.5q-11 -27 -24 -21q-6 3 0 31q25 209 2 344q-3 21 -16.5 60.5t-16.5 50.5q0 1 -1 3l-2 4t-1.5 4t-0.5 3.5z" />
<glyph unicode="3" horiz-adv-x="1140" d="M61 336q-3 -79 23 -162q45 -145 233 -201q216 -65 474 -2q139 35 219 164q23 36 37.5 84.5t18.5 76.5t11 91q7 77 -10.5 152t-69 138.5t-129.5 86.5q-25 7 -27 17.5t17 29.5q118 118 156 291q27 127 -19 217q-38 76 -106.5 114.5t-163.5 53.5q-125 19 -315 -14 q-117 -21 -179 -91q-65 -78 -106 -219q-8 -27 9 -47.5t44 -17.5q27 4 54 5t70.5 0t53.5 -1q45 0 45 37q-2 25 -10.5 40t-32.5 19q-50 10 -88 8q-30 -3 -18 25q33 71 90 100q77 40 209 47h27q74 3 98.5 -16.5t36.5 -89.5q8 -45 12.5 -99t5.5 -92t2 -101.5t2 -94.5 q3 -38 -30 -58q-85 -52 -152 -67q-47 -12 -41 -60q3 -45 49 -53q30 -3 60 6q25 11 58.5 2t45.5 -30q35 -50 45 -131q4 -38 5.5 -86t1.5 -72.5t-1.5 -90.5t-1.5 -77q-3 -99 -98 -105q-24 -1 -65.5 -3t-76 -3t-65.5 0q-144 0 -262 121q-17 17 -23 41q-11 38 -3 49t48 11 q35 0 41 2q1 1 16 4t21.5 9t9.5 19q12 40 3 56t-52 26q-21 5 -44.5 5t-52 -2.5t-44.5 -2.5q-36 0 -49.5 -12t-16.5 -47zM825 1311q-5 19 2 22q8 5 23 -10q15 -9 25.5 -25.5t14.5 -29t9 -35.5q40 -133 -33 -238q-10 -15 -18 -12q-4 2 -4 18v105q-1 38 -9 107t-10 98z M848.5 632.5q-0.5 3.5 1 7.5t6.5 5q2 3 7 1.5t7 -3t6.5 -5.5t6.5 -5q41 -41 71 -129q20 -50 17 -127q9 -111 -66 -201q-1 -2 -4 -6.5t-4.5 -6t-5 -4t-6.5 0.5q-5 2 -6.5 6t-0.5 11.5t1 8.5q10 183 -5 322q-2 18 -11 53.5t-11 54.5q0 3 -1.5 8t-2 8.5z" />
<glyph unicode="4" horiz-adv-x="1103" d="M70 618q18 -32 80 -24q2 0 29.5 4t32.5 5t29 4t32.5 3.5t29 2t33 1.5t29.5 -0.5t32 -1.5q58 -4 178 -8q18 0 23.5 -9t5.5 -26q0 -281 -20 -442q-4 -28 -13 -34.5t-32 -4.5q-35 2 -49 -12t-13 -49q1 -18 10.5 -27.5t20 -11.5t27.5 -2h178q20 0 57.5 -0.5t68.5 -0.5t58 1 q20 1 44 25.5t22 39.5q-2 12 -30 28t-46 13q-11 0 -17 -2q-20 -3 -27 4t-9 29q-1 41 -0.5 221t-6.5 221q0 17 7.5 24.5t25.5 10.5q30 3 127 21q15 2 37.5 29t15.5 34q-3 3 -8.5 10t-8 10t-9 9t-10 7.5t-10.5 5.5t-12.5 2.5t-14.5 -1.5q-13 -4 -44.5 -7.5t-48.5 -8.5 q-43 -13 -40 34q6 80 6 160q2 127 2 381q0 48 7.5 57.5t53.5 16.5q14 2 40 29t20 34q-26 43 -66 41q-148 -10 -262 11q-39 6 -51 -33q-4 -12 -11.5 -34t-11.5 -34q-3 -6 -27.5 -54t-33.5 -75q-21 -62 -60 -130t-67.5 -108t-85.5 -116q-85 -108 -191 -186q-52 -42 -26 -87z M281 731q-4 8 0 16.5t15 19t13 13.5q178 202 285 443q0 1 1.5 4t2 4.5t2.5 3t4 0.5q6 -3 6 -16v-68q-14 -106 -14 -375q0 -14 2 -18q8 -26 -2 -33.5t-35 -5.5q-176 9 -225 8q-5 0 -19 -2.5t-23 -1.5t-13 8zM680 872l18 453q0 2 0.5 8t1 8.5t2.5 6t6 5t11 1.5q12 0 18 -1 t11.5 -7t5.5 -19q0 -12 2.5 -43.5t1.5 -48.5q-4 -37 -3.5 -100t-0.5 -101q-1 -25 -3.5 -95t-5.5 -108q-2 -31 -2 -90q0 -18 -8.5 -24t-27.5 -8q-7 0 -11.5 1.5t-6.5 3t-3.5 6.5t-1.5 6v8v7v131h-4zM683.5 117.5q0.5 9.5 0.5 11.5v25q4 57 4 122t-2 145t-2 124q0 11 4 35 q3 18 29 18q15 -2 18 -23q8 -54 7.5 -149.5t2.5 -151.5q10 -182 -45 -176q-10 1 -13.5 5.5t-3 14z" />
<glyph unicode="5" horiz-adv-x="989" d="M61 328.5q0 -13.5 2 -29.5q17 -94 54 -195q48 -130 200 -149q186 -23 388 29q91 23 137.5 73.5t68.5 145.5q41 164 -22 346q-26 74 -58.5 125.5t-85.5 83.5q-145 82 -286 39q-25 -10 -36 -3t-11 37q2 121 -6 363q0 26 -1.5 77t-1.5 77q0 17 8 24.5t27 9.5q220 11 348 -4 q39 0 52 8q35 20 20 66q-14 39 -72 35q-65 -5 -192.5 -2t-192.5 -2q-68 -6 -274 -6q-41 0 -51 -31q-12 -47 16 -64q16 -9 21 -47q28 -127 28 -342q0 -48 5.5 -144t5.5 -144q2 -66 35.5 -87.5t93.5 7.5q121 61 262 82q89 13 145 -43q177 -166 123 -437q-23 -108 -104 -135 q-169 -60 -336 -43q-148 16 -181 150l-30 120q-14 56 -64 48q-18 -4 -26.5 -14.5t-8.5 -24zM215 1333q-4 27 8 36t37 9q3 0 11 0.5t11.5 0t9.5 -1t8.5 -2.5t4.5 -5.5t1 -9.5t-5 -14q3 -52 5 -108.5t4 -122t3 -103.5q0 -25 3 -102t1 -119q0 -30 -20 -41q-27 -16 -37 -13 q-7 3 -9.5 8t-2.5 14.5v12.5q-7 82 -11.5 233t-7.5 203q-3 71 -14 125z" />
<glyph unicode="6" horiz-adv-x="1058" d="M61 492q5 -119 32 -211.5t93 -167.5q65 -70 126 -111t139 -49q115 -13 268 22q94 20 175.5 104t96.5 177q39 229 -166 410q-4 4 -9 7t-11.5 6t-9.5 5q-182 76 -363 43q-53 -10 -84.5 -18t-72.5 -27t-72 -47q-1 -1 -4.5 -5t-5.5 -6t-6.5 -5t-7 -2.5l-7.5 1.5q-11 7 -6 37 q16 93 61 211q149 386 543 543q9 4 30 9t31 9q35 22 27 50q-6 24 -45 24q-91 -7 -139 -39q-26 -17 -76.5 -48t-89.5 -57.5t-72 -53.5q-129 -110 -231 -275q-17 -27 -40.5 -80.5t-31.5 -68.5q-78 -166 -72 -355v-32zM162 430q0 20 12 41q20 36 58 64t64 38.5t62 22.5 q94 38 181 27q52 -6 107 -64.5t67 -122.5q3 -15 8 -135v-78q7 -53 -19 -90t-77 -72q-10 -6 -37 -6q-190 -22 -328 146q-93 115 -98 229zM813 469q-4 16 4 20q8 3 19 -14q57 -69 61.5 -137.5t-41.5 -144.5q-1 -1 -5 -7.5t-5.5 -8.5t-5.5 -6t-7.5 -5t-7.5 0q-5 1 -7 5.5 t-1.5 8.5t1.5 10t1 9q1 0 1 65l-1 64q-1 16 -0.5 44.5t-0.5 52t-5 44.5z" />
<glyph unicode="7" horiz-adv-x="1091" d="M63 1313q1 -7 9 -51.5t8 -52v-52.5q-3 -35 22 -47q21 -12 56 10q5 4 8.5 9t4.5 12t1.5 11t0 13t-0.5 11q-8 80 -16 120q-3 18 3.5 24.5t22.5 6.5q101 6 103 6q65 6 131 10.5t167.5 9.5t129.5 7q26 0 31.5 -6.5t-5.5 -34.5q-28 -55 -53 -118.5t-52.5 -145.5t-43.5 -123 q-22 -57 -50 -124t-48 -113t-55.5 -126t-51.5 -116q-25 -59 -66 -178.5t-65 -176.5q-7 -20 -16 -26t-29 -4q-4 0 -13.5 1t-13.5 1q-20 0 -25.5 -8.5t-0.5 -26.5q6 -31 35 -49.5t65 -14.5q25 2 69 2.5t58 1.5q34 -2 98.5 3.5t79.5 5.5q55 3 62 59q1 14 -6.5 21.5t-26 14 t-21.5 7.5q-10 2 -10.5 2.5t-13.5 -2.5l-13 -2q-12 0 -18 1.5t-10.5 8t2.5 19.5q4 9 22.5 59.5t30.5 75.5q102 224 158 375q86 228 119 313q30 75 188 450q19 44 -27 68q-26 14 -64.5 15t-90 -6t-66.5 -7q-195 0 -250 -4q-23 -2 -124.5 -16.5t-157.5 -16.5q-13 0 -37 2 t-42 2.5t-38 -2t-34.5 -13.5t-22.5 -30q-13 -29 -7 -65zM328 94q1 4 5.5 12t4.5 9q102 298 182 473q106 229 203 514q29 80 96 223q18 41 49 33q25 2 32 -4.5t-1 -32.5q-168 -401 -227 -559q-67 -178 -217 -522q-47 -106 -56 -144q-1 -7 -3.5 -11.5t-6.5 -7t-7.5 -4 t-9.5 -0.5t-9 1t-10 2t-9 2q-10 1 -13.5 6.5t-2.5 9.5z" />
<glyph unicode="8" horiz-adv-x="1146" d="M74 236q21 -84 96 -176.5t154 -125.5q72 -29 175.5 -30.5t196.5 16t174 45.5q98 35 153 108.5t61.5 158t-28 173t-104.5 156.5q-8 8 -23 17.5t-30 17.5t-31 17.5t-27 18.5t-17.5 19t-3 21.5t17.5 23.5l36 31q73 66 113 136t39 155q6 63 -17 119.5t-67 117.5 q-76 106 -270 168q-59 19 -142.5 -6.5t-157.5 -76t-131.5 -117.5t-68.5 -125q-16 -83 30.5 -182.5t114.5 -165.5q14 -13 17.5 -21.5t-2 -15.5t-21.5 -15q-133 -74 -186 -161q-93 -148 -51 -301zM158 297q-3 130 63 213q15 25 29 18q8 -3 8.5 -7.5t-3.5 -12t-5 -10.5 q-13 -72 -17 -238q0 -56 17 -129q1 -2 4 -9t3 -10t-3 -8q-3 -3 -8.5 -1t-7.5 3t-6.5 5.5t-6.5 5.5q-44 42 -63 139q-4 16 -4 41zM276 1033.5q-2 53.5 25 104.5t80 83q6 6 12 6q14 4 3 -23q-5 -12 -19 -37q-8 -14 -8 -16q-7 -25 -11 -76q-4 -36 -0.5 -73t2 -81t-13.5 -67 q-2 2 -6.5 4t-5.5 4q-31 44 -37 62q-19 56 -21 109.5zM336 227q-11 145 4 226q8 42 16 59q14 40 41.5 71t63.5 44q62 23 146 24t145 -22q79 -31 142.5 -116t94.5 -177q32 -92 -35 -182q-76 -103 -241 -131q-90 -14 -117 -11h-35q-110 -7 -165 55.5t-60 159.5zM463 854 q-31 158 39 381q17 54 65 74t105 -4q9 -4 71.5 -28.5t92.5 -45.5q57 -40 74.5 -96t17.5 -138q0 -81 -78 -155q-118 -118 -182 -115q-62 3 -92 6.5t-56 17t-37 37t-20 66.5z" />
<glyph unicode="9" horiz-adv-x="1165" d="M61 -29q6 -53 60 -47q6 1 13.5 1t16 -0.5t13.5 -0.5q194 20 345.5 64t278.5 137q161 119 236 321q118 323 59 607q-33 181 -133 262q-69 55 -88 67q-61 40 -110.5 57t-106.5 5q-13 -3 -49 -10t-61 -13.5t-48 -15.5q-191 -72 -262 -238q-56 -129 -24 -231 q42 -131 178 -188q96 -40 168.5 -58.5t148.5 -9.5q59 7 90 11.5t80 17.5t86 32q14 8 23 4t6 -24q-22 -195 -102.5 -337.5t-241.5 -233.5q-56 -34 -160 -68q-169 -57 -264 -57q-19 0 -54 -3t-44 -4q-26 -2 -40.5 -13t-13.5 -34zM299 1010q-7 67 36 145t105 109l13 8l8 -4 q0 -12 -6 -21q-57 -100 -60 -235q-3 -45 11 -105q0 -1 2.5 -7t3 -8.5t0.5 -7t-2 -7.5t-7 -5q-10 -1 -11.5 -1.5t-11 5.5t-11.5 7q-60 38 -70 127zM508 936q-30 140 24 240q34 62 74 100.5t101 46.5q34 3 65 -16q168 -89 207 -289q3 -13 8 -51q12 -70 1 -89t-77 -40 q-48 -16 -209 -45q-76 0 -129 40.5t-65 102.5z" />
<glyph unicode=":" horiz-adv-x="317" d="M63.5 261.5q4.5 -24.5 20.5 -40.5q10 -10 22 -16q32 -16 76 -19q28 -4 41 9q17 22 21.5 55t-15.5 55q-21 17 -71 33q-21 6 -52 2q-24 -7 -36 -31q-11 -23 -6.5 -47.5zM74 591.5q5 -25.5 22 -40.5q9 -9 23 -16q30 -15 74 -19q30 -4 40 8q19 20 23.5 55.5t-14.5 55.5 q-19 16 -74 33q-21 6 -49 2q-27 -8 -39 -31q-11 -22 -6 -47.5z" />
<glyph unicode=";" horiz-adv-x="307" d="M63.5 237.5q-4.5 24.5 6.5 47.5q12 23 39 30q28 4 49 -2q52 -17 71 -32q17 -19 16 -48t-16 -53q-20 -59 -58 -113.5t-58 -54.5q51 91 59 150q-46 8 -66 18q-5 2 -12.5 9t-9.5 8q-16 16 -20.5 40.5zM63.5 591.5q4.5 -24.5 20.5 -40.5q20 -15 22 -16q32 -16 76 -19 q29 -4 41 8q17 22 21.5 55.5t-15.5 55.5q-21 17 -71 33q-21 6 -49 2q-27 -7 -39 -31q-11 -23 -6.5 -47.5z" />
<glyph unicode="&#x3c;" horiz-adv-x="872" d="M80 510q28 -21 45 -41q15 -16 46.5 -37t41.5 -29q121 -106 258 -196l215 -141q7 -4 20.5 -14.5t20.5 -14.5q20 -13 37 4q19 18 24.5 36.5t-3 35.5t-22.5 32.5t-36.5 30.5t-41 26t-41 23.5t-32.5 18.5q-21 14 -69 43.5t-75 47.5t-64.5 46.5t-65.5 56.5q-18 16 -2 35 q9 9 28.5 21t26.5 18q8 6 25 22.5t28 24.5q20 14 84 51q50 28 127 86q17 13 35 24.5t45.5 27t36.5 20.5q48 29 37 82q-14 63 -14 80v4v16.5v17t-1.5 14t-5 14.5t-9.5 10t-15 10q-24 9 -59 -15q-11 -7 -37.5 -29.5t-42.5 -31.5q-81 -45 -88 -49q-8 -6 -26.5 -20t-29.5 -22 t-27.5 -18t-31.5 -16q-11 -4 -41 -29q-12 -12 -24.5 -22.5t-29.5 -22t-26 -17.5t-31.5 -19.5l-27.5 -16.5q-17 -11 -72 -40.5t-82 -51.5q-52 -45 -8 -86zM213 541q-12 9 6 18q126 77 260 172q30 22 91.5 61t68.5 44q8 5 21 16t20 15t16.5 7t16 -4.5t12.5 -23.5q1 -2 2 -7.5 t2 -7.5q2 -13 -6 -25.5t-25 -23.5t-30.5 -18.5t-33.5 -17t-24 -11.5q-18 -11 -52.5 -37t-53.5 -36q-64 -40 -129 -87q-3 -2 -20.5 -17.5t-31.5 -27t-31 -20.5t-26 -6q-32 9 -53 37z" />
<glyph unicode="=" horiz-adv-x="598" d="M63 445.5q-6 -20.5 11 -42.5q29 -44 80 -41l28 5q146 21 211 32q74 10 86 11q65 9 56 77q-5 31 -20 39.5t-52 1.5q-40 -8 -60 -10q-26 -3 -124.5 -17t-153.5 -16q-22 -4 -31 -8q-25 -11 -31 -31.5zM76 653q1 -2 4 -15t5.5 -19t9.5 -13.5t18 -11.5q38 -13 88 -10 q23 2 60 8.5t60 10t60.5 5.5t62.5 -4q17 0 25 -2q34 -7 51 33l6 16q15 44 4.5 60.5t-57.5 17.5q-117 4 -188 -12q-4 -1 -18.5 -4t-20.5 -4t-17 -2t-19.5 0t-16.5 4q-23 3 -32 2t-27.5 -8t-27.5 -9q-13 -3 -23.5 -16t-6.5 -27z" />
<glyph unicode="&#x3e;" horiz-adv-x="886" d="M62 215q2 -23 9 -39t16 -38.5t11 -37.5q2 -16 3 -22.5t4 -24t8 -24t12.5 -14.5t19.5 -5t27 15q47 36 178 114q42 26 87 49.5t114 57t90 43.5q16 8 62.5 34t74.5 37q32 13 42 33.5t3.5 40.5t-24.5 43.5t-35.5 40t-36.5 31.5q-65 48 -117 108q-19 22 -61.5 55t-59.5 50 q-16 17 -47 47.5t-55.5 56t-44.5 49.5q-12 15 -41 27q-24 9 -42 -5.5t-15 -39.5q3 -16 16 -33q41 -52 115 -123q23 -20 65.5 -62t65.5 -63q37 -30 61 -73q15 -25 -16.5 -49.5t-87.5 -46.5t-60 -25q-81 -54 -124 -64q-14 -3 -26 -8t-26 -12t-21.5 -11.5t-24.5 -15.5t-23 -14 l-54 -18q-25 -11 -32 -25q-12 -16 -10 -39zM150 199q1 35 48 62.5t117.5 50.5t83.5 30q19 9 60.5 31.5t64.5 32.5q6 3 38.5 23.5t57.5 29.5t42 2q53 -23 -81 -78q-8 -3 -10 -4q-22 -9 -66 -32t-67 -32q-39 -18 -139 -82q-9 -5 -32 -17.5t-34 -20.5q-5 -3 -17 -16 t-22.5 -18.5t-21.5 -0.5q-25 14 -22 39z" />
<glyph unicode="?" horiz-adv-x="768" d="M61 1137q0 -7 3.5 -12.5t9.5 -11t8 -7.5q2 -3 5 -3t5 1.5t5.5 4t4.5 3.5q9 9 19 16.5t18 13t22 12.5l20 10t23.5 9.5t21 7.5t24 7.5t22.5 7.5q56 18 97.5 -12t46.5 -86q16 -170 16 -322q0 -30 -24.5 -58.5t-55.5 -37.5q-73 -20 -133 -23q-23 0 -36.5 -6.5t-10.5 -27.5 q7 -51 12 -205q0 -47 31 -47q19 0 34 12.5t21 34.5q2 4 2 31q0 54 -2 81q-2 29 29 35q10 2 31.5 6.5t33.5 7.5t28.5 9t29.5 14q202 116 268 322q35 104 -4 178q-94 186 -297 192q-156 11 -289 -77q-39 -25 -39 -80zM94.5 107q-5.5 -26 1.5 -58q6 -24 6 -26q5 -40 35.5 -72.5 t71.5 -38.5q69 -9 110.5 35t42.5 137q0 44 -60.5 95.5t-102.5 45.5q-14 -2 -27.5 -14.5t-27 -30.5t-19.5 -24q-25 -23 -30.5 -49zM174 74q0 49 43 57q15 2 34.5 -24t16.5 -46q-1 -4 -2 -15.5t-2.5 -17t-5 -13t-12 -11t-21.5 -2.5q-51 0 -51 72zM496 1141q-1 20 4 22.5 t20 -4.5q50 -19 76 -72.5t14 -113.5q-13 -61 -67 -152q-28 -46 -31 30v21v5q0 88 -16 264z" />
<glyph unicode="@" horiz-adv-x="1073" d="M61 346q2 -55 35 -164q45 -152 215 -205q171 -55 351 -14q116 26 233 115q21 15 6 37q-15 27 -32.5 29t-45.5 -21q-123 -103 -301 -94q-61 -7 -164 18q-121 29 -161 105q-93 186 -37 337q51 139 114 207q57 64 131 105t179 80q133 49 260 -56q42 -33 59 -75 q47 -103 31 -228q-9 -72 -47 -141q-24 -45 -65.5 -66t-102.5 -32q-43 -7 -67.5 13.5t-10.5 70.5q21 77 74 168q15 24 0 45q-11 13 -41 -2q-18 -8 -29 -33q-7 -18 -14 -21t-25 13q-32 35 -76.5 43.5t-89.5 -15.5q-50 -28 -71 -49q-21 -20 -35 -35t-30.5 -35t-25.5 -39.5 t-15 -42t-5 -48t10 -52.5q11 -37 46 -61.5t69 -14.5q7 2 28 7.5t30.5 8.5t28 9t29.5 11t25.5 13t26.5 17q20 15 39 -2q69 -65 143 -47l66 18q125 42 166 135q53 112 47 248q-10 177 -117 273q-88 77 -170 94q-15 2 -31 2.5t-28 -0.5t-30 -4.5t-27.5 -6t-29.5 -7.5l-28 -7 q-24 -7 -46.5 -15t-51.5 -22.5t-40.5 -20.5t-48.5 -26.5t-42 -23.5q-97 -58 -150 -142q-67 -120 -94 -206q-23 -79 -17 -148zM324 340q17 85 98 141q4 3 16 11t18.5 11.5t17.5 7t22 3.5q41 -2 66 -33.5t18 -72.5q-8 -53 -60 -89q-45 -35 -137 -55q-36 0 -51.5 20t-7.5 56z " />
<glyph unicode="A" horiz-adv-x="1642" d="M63 119q-2 -6 -2 -11q0 -20 27 -38q39 -25 102 -25q19 -1 54 -1.5t64 -1.5t54 -3q44 -3 106 -3q93 0 226 7q20 1 25.5 16.5t-6.5 30.5q-29 41 -66 41h-4q-20 -1 -26 7.5t-1 29.5q38 164 144 444q9 28 39 23q2 0 86 -12q123 -15 245 -15h41q32 0 37 -28q27 -170 95 -424 q7 -31 2.5 -36t-35.5 -5q-78 4 -119 4q-25 0 -33 -19q-6 -19 12 -37q25 -32 70 -32q47 -1 141.5 -4t141.5 -4q5 0 24.5 -1.5t31.5 -1.5t24.5 6t15.5 19q2 3 2 8q0 3 -1 6q-3 8 -3 12t-7 10.5t-9.5 8.5l-10 8t-10.5 8q-9 7 -35 7q-7 0 -32 -2h-5q-36 0 -47 39q-7 29 -20 86 t-19 83q-32 125 -72.5 356t-54.5 300q-45 223 -90 338q-11 29 -6.5 36t35.5 7q142 -5 180 -10q28 -6 43 18q4 6 4.5 11.5t-1.5 9t-6 9.5t-5 9q-13 30 -53 33l-121 12q-107 7 -161 7q-18 0 -30 -1q-37 -3 -82 -3q-8 1 -16 1q-54 0 -81.5 0.5t-103.5 4.5t-87 5q-29 1 -61 4.5 t-72.5 9.5t-61.5 9q-5 1 -10 1q-25 0 -35 -18q-12 -21 19 -47q26 -23 59 -26q6 -1 61 -9t84 -10q23 -1 27.5 -9t-4.5 -30q-21 -47 -56.5 -143t-56.5 -143q-19 -48 -51.5 -137t-40.5 -109q-52 -129 -65 -170q-16 -49 -51 -149t-60.5 -178t-44.5 -150q-8 -28 -37 -25 q-18 1 -53 2t-53 2q-41 4 -48 -18zM372 132q-2 3 -2 10q0 15 9 48q41 129 131 383l141 381q72 191 137 355q15 38 33 47q12 6 36 6q14 0 32 -2q47 -3 51.5 -11t-16.5 -51q-147 -309 -215 -501q-42 -120 -74 -195q-74 -167 -113 -330q-3 -14 -16.5 -59t-13.5 -72 q0 -13 -10.5 -16.5t-47.5 -3.5q-55 3 -62 11zM810 724q-2 3 -1 9q0 8 4 19q63 164 180 422q12 26 39 79q1 1 3 7t3.5 8.5t5.5 5.5q3 2 7 2h2q9 -2 14 -25q37 -91 61 -223q46 -215 54 -280q3 -19 3 -31q1 -13 -3 -17q-5 -5 -27 -5q-9 0 -20 1h-41h-10q-50 0 -140 8 q-98 10 -110 11q-20 1 -24 9z" />
<glyph unicode="B" horiz-adv-x="1429" d="M61 92v-6q0 -27 41 -41q21 -6 45 -6q15 1 30 1q66 0 138 -11q12 -1 49 -7.5t58 -7.5h19q61 0 162 10q117 12 161 15q180 3 256 17q28 5 55 12q41 11 59 16.5t50.5 17.5t55.5 28t42 38q87 103 87 220q0 65 -26 134q-76 199 -280 273q-4 2 -11.5 4t-12.5 3.5t-9 5t-4 7.5 q-1 6 3 11.5t8 8.5t13 7.5l11 5.5l8 2q68 42 131 129q38 51 44 121q2 22 1 43q0 46 -8 86q-13 75 -72 114q-54 38 -157 68q-78 22 -170 32q-83 9 -157 9h-15q-80 -1 -172 -2h-310q-44 0 -49 -29q-5 -26 37 -43q26 -12 61 -14h23q22 0 41 2q21 2 30 -6t9 -29q4 -62 4 -129 q0 -104 -10 -223q-18 -302 -21 -395q-1 -109 -1 -148t2 -149t3 -148q0 -15 -5.5 -20t-22.5 -4q-55 6 -174 10q-18 0 -32.5 -9t-17.5 -24zM426 348v45q2 39 2 236q1 82 18 317q12 160 11 271q0 52 -2 94q0 8 -4 32q0 16 6 19q14 7 35 7q14 0 32 -3q10 -3 13 -9t0.5 -17 t-2.5 -13v-31q0 -58 -5 -150q-7 -118 -8 -159q-3 -87 -12.5 -260t-12.5 -260q-1 -37 -1 -90q0 -71 2 -170q1 -9 1.5 -25.5t1.5 -30.5t3 -26q3 -18 -5 -24.5t-24 -4.5h-11h-7h-5q-4 0 -9 2t-7.5 8t-3.5 15q-6 122 -6 194v33zM614 389q0 68 3 149.5t6.5 137t10 153t9.5 140.5 q1 14 1 28.5t-0.5 34t-0.5 31.5q0 17 5 119q4 73 3 122v35q0 24 27 27h20q223 0 385 -66q19 -8 30.5 -26.5t15 -34.5t6.5 -41q1 -14 1 -29q0 -139 -143 -245q-27 -19 -61 -37.5t-56.5 -28.5t-68.5 -29t-62 -26q-30 -10 -30 -27q0 -31 30 -43q28 -13 69 -13q30 0 67 7 q29 5 57 5q96 0 182 -62q110 -80 129 -209q5 -33 5 -63q0 -138 -103 -205q-85 -57 -213 -64q-48 -3 -144.5 -7t-144.5 -7h-5q-9 0 -13 3q-6 4 -7.5 8.5t-2.5 14.5q-1 23 -4 111.5t-3 136.5z" />
<glyph unicode="C" horiz-adv-x="1212" d="M86 807q-24 -105 -24 -208q0 -133 40 -263q54 -175 240 -289q126 -74 286 -74h13q109 2 185 14.5t145 53.5q41 25 62.5 40t47 46.5t33.5 67.5q4 19 4 34q0 23 -9 35q-16 22 -60 23q-12 0 -40 1t-48.5 0.5t-38.5 -3.5q-26 -3 -34.5 -16.5t3.5 -35.5q6 -15 11.5 -23 t17.5 -15t28 -5q25 5 27 -10q3 -14 -17 -24q-132 -83 -281 -83q-79 0 -163 23q-41 12 -73.5 56t-37.5 90q-2 44 -2.5 119t-0.5 96q12 263 18 370q2 30 4 95t7.5 115t16.5 96q26 103 83 169t155 91q97 24 152 26q12 1 23 1q126 0 194 -101q24 -31 14 -53q-4 -6 -10.5 -6.5 t-16 1.5t-14.5 1q-6 0 -19.5 1t-19.5 1q-34 0 -41 -11q-4 -6 -4 -16v-9.5v-10.5t0.5 -9.5t2 -10t4 -8.5t6 -8.5t8.5 -5.5t12 -4q56 -12 76 -14h8q31 -1 59 19q31 22 33 51q1 9 1 18q0 83 -58 156q-64 81 -156 96q-78 12 -143.5 12.5t-118.5 -12.5q-130 -30 -191 -82 q-19 -17 -58.5 -46t-69 -55t-50.5 -54q-22 -28 -43 -60.5t-51 -83.5t-39 -65q-52 -91 -88 -244zM152 600q0 130 41 255t118 220q1 1 2.5 4l2.5 5t3 5t3.5 4.5l3.5 3.5q2 3 4 3h2h2t6 -2q4 -3 4 -8.5t-2 -14t-2 -12.5l-18 -330q-1 -22 -5 -94.5t-5 -104.5q0 -32 -2 -90 q-1 -29 -1 -56q1 -26 1 -50q2 -48 5 -94q0 -2 0.5 -7t0 -8t-1 -7t-3 -6.5t-6.5 -4.5q-2 -1 -4.5 -1t-4.5 1q-4 2 -10 7.5t-7 6.5q-43 33 -66 80.5t-39 114.5q-22 90 -22 180z" />
<glyph unicode="D" horiz-adv-x="1527" d="M61 1452q-1 -3 -1 -6q0 -7 4 -13q5 -8 11 -11.5t18 -8t16 -6.5q2 -1 6 -1t6 -1q31 -6 44 -6t45.5 3.5t47.5 4.5q24 9 34.5 -3t18.5 -40q8 -50 8 -74q1 -71 1.5 -215.5t1.5 -216.5q1 -15 1 -35q0 -50 -4 -132q-3 -71 -3 -121q0 -30 1 -52q5 -76 7.5 -221.5t3.5 -167.5 q2 -28 -10 -40t-42 -11q-23 1 -42 1q-48 0 -74 -7q-27 -10 -30 -21q-2 -4 -1 -10q0 -27 25 -39q22 -11 51 -8q28 0 90 4h19q44 0 110 -4q82 -4 151 -4t130 10q24 4 91.5 12t114 17.5t88.5 27.5q16 6 34.5 16t30.5 18t32.5 22t29.5 20q53 35 97.5 85.5t77 111.5t57.5 122.5 t44 134.5t31 131t23 128q10 60 10 115q0 161 -86 274q-135 184 -311 229q-9 2 -53.5 14t-59 15t-53 12t-59.5 12t-53 7q-31 5 -59 6q-14 0 -28 0.5t-28 -0.5q-73 -4 -153 -10.5t-183 -16.5t-152 -14q-3 0 -25.5 -7.5t-37.5 -2.5q-21 6 -39.5 -1t-24.5 -26zM426 1391 q-1 6 -1 11q-1 9 3 13q6 6 25 8q14 1 26 1q37 0 45 -8q12 -10 21 -70q4 -29 4 -86q0 -78 11 -290q7 -137 7 -234q0 -53 -2 -93q-2 -24 -1.5 -60.5t1.5 -85.5t1 -84.5t-1 -58.5q6 -48 7.5 -132.5t2.5 -100.5q0 -26 -10 -36q-9 -9 -32 -9h-5q-57 3 -66.5 12t-10.5 66 q-1 26 -7 192.5t-6 255.5q0 67 7 199.5t6 197.5v25q0 246 -25 367zM659 1418q0 14 8 20q7 4 17 5q4 0 8 -1q20 -2 64 -3.5t77.5 -5t63.5 -12.5q27 -8 82 -20.5t82 -20.5q51 -14 91.5 -42.5t84.5 -73.5q55 -59 83.5 -128.5t30.5 -140.5v-20q0 -62 -10 -131q-28 -184 -81 -342 q-96 -293 -361 -387q-24 -8 -53.5 -13t-66 -10t-54.5 -8h-3q-14 0 -20 7q-6 8 -6 24v190q-10 218 -10 481q0 60 -6 172.5t-8 161.5z" />
<glyph unicode="E" horiz-adv-x="1339" d="M61 57q1 -21 17 -31q18 -10 45 -14q4 -2 16 -2q44 0 183 -2q70 -1 128 -0.5t104 0.5q94 2 185 8q111 8 203 8q66 0 123 -4q19 -1 36 -1q72 0 109 14q31 13 31 41q0 7 -2 16q-12 55 -12 95q0 28 6 48q5 19 2 43q-3 23 -22 37.5t-44 12.5q-41 -4 -41 -33q0 -16 -3.5 -45 t-3.5 -53t7 -45q7 -25 -2.5 -35.5t-35.5 -8.5q-92 1 -168 1q-190 0 -283 -7h-8q-8 0 -25.5 -2t-30 -1.5t-20.5 5.5q-12 7 -13.5 19.5t2.5 31t3 27.5q-5 45 -7 90v28q0 34 2 72q4 54 7 86t10.5 99t9.5 90q1 21 9.5 28t29.5 5q87 -14 160 -14h25q31 2 44 -10t9 -42 q-2 -13 2 -34q4 -26 28.5 -41.5t53.5 -10.5q28 4 33.5 22.5t-2.5 39.5q-3 7 -3 33v25v50q-1 25 -1 48q1 22 1 42q2 40 7 76q3 23 -15 40.5t-45 19.5q-26 1 -37.5 -10.5t-13.5 -39.5q-1 -12 -4.5 -44.5t-3.5 -49.5q0 -36 -37 -33q-32 2 -99 5.5t-102 5.5q-11 0 -16 0.5t-11 6 t-6 17.5v20q0 23 -1 59t-1 60v21q8 105 8 220.5t-8 240.5q-4 29 23 29q161 0 223 -5q25 -2 60 -2q78 0 204 11q24 2 40 2q25 0 31 -5q5 -5 5 -27q0 -16 -2 -40v-6q0 -42 39 -53q14 -4 26 -4q32 0 44 30q10 22 12 48q1 15 1 32q-1 13 -1 27q-2 32 0 49q1 3 -1.5 5.5t-7 6 t-5.5 4.5q-24 27 -60 32q-14 2 -26 2q-21 0 -39 -5q-160 -19 -298 -19q-56 0 -108 3q-76 8 -101 8h-5q-53 -3 -124 -3q-142 0 -356 11q-25 0 -41 -8q-22 -10 -23.5 -26.5t17.5 -31.5q23 -20 62 -20q29 0 38 -12.5t7 -40.5q-21 -303 -21 -693q3 -272 3 -422q0 -90 -1 -137 q-2 -28 -11 -40t-36 -9q-12 0 -18 -2q-4 -1 -23.5 -2.5t-28.5 -7.5q-10 -6 -10 -23zM305 184q10 86 10 186q0 62 -4 130q-2 40 -2 235t2 291q2 62 8.5 184t8.5 183q1 22 11.5 31t33.5 14t40 5q21 1 31 -7q20 -14 19 -66q1 -49 1 -105.5t-0.5 -138t-0.5 -139.5q2 -25 2 -59 q0 -96 -15 -258q-20 -219 -22 -305q-2 -80 -2 -236q0 -21 -8 -29t-29 -8h-14q-51 0 -63 14q-9 10 -9 41q0 16 2 37z" />
<glyph unicode="F" horiz-adv-x="1497" d="M61 40q0 -28 35 -40q11 -5 22 -6.5t30.5 -2.5t23.5 -1q17 -1 37 -1q52 0 130 4q109 5 130 5q181 0 315 18q25 3 31.5 20t-8.5 36q-24 29 -66 29q-8 0 -18 -1q-12 -1 -37 -4.5t-45.5 -5.5t-38.5 -2q-24 3 -22 23q3 30 7 89.5t7 88.5q22 173 24 289q2 71 20 89q16 15 70 15 h19q13 -1 51 -4t52 -2.5t53 4.5q23 7 39 7q14 0 24 -5q8 -4 9 -12.5t-1.5 -21.5t-1.5 -19q1 -20 21.5 -37t42.5 -17q46 0 49 37q8 180 7 269q0 26 -21.5 45.5t-46.5 17.5q-16 -3 -24 -5.5t-13.5 -12t-1.5 -25.5q3 -12 3.5 -25.5t0 -22.5t-2 -26t-1.5 -24q0 -17 -8.5 -24 t-26.5 -11q-57 -9 -137 -9q-59 0 -131 5q-23 2 -23 31q0 30 4 92q1 32 2 132t6 155t5 101q0 69 -11 118q-3 15 4.5 17.5t18.5 -1.5h27q65 0 171 7q130 9 187 9q28 -1 59.5 1t71.5 5.5t59 4.5q42 1 50 -8.5t5 -53.5q-2 -45 -30 -131q-2 -8 -2 -15q0 -27 28 -38q17 -8 32 -8 q35 0 58 45q23 42 34 125t16 102q1 6 1 11q0 34 -55 53q-8 3 -18.5 4t-23 1t-19.5 1q-28 1 -57 1q-38 1 -76 -1q-70 -2 -154.5 -7t-132.5 -6q-189 -3 -377 -12h-211q-104 0 -157 -4q-48 -4 -52 -31q-1 -3 -1 -7q0 -22 36 -42q28 -13 57 -13q10 0 19 1q41 7 52.5 -2.5 t13.5 -50.5q2 -8 2 -27q-4 -64 -14.5 -247t-18.5 -283q-29 -334 -29 -551q0 -84 -2 -127q0 -42 -37 -42q-5 0 -10 1q-7 1 -16 1q-19 0 -50 -3q-1 0 -6 -0.5t-6.5 -1t-6 -1t-6.5 -1.5t-5 -2t-5 -3t-4 -4.5t-3 -6.5t-1 -12zM328 147q1 10 2 31t2 31q2 165 22 489 q22 335 33 447q9 83 9 143q0 45 -5 76v4q0 19 11 29t28 6q10 -2 28 2t31 7q4 1 7 1q10 1 20 -5q14 -8 19 -30q4 -9 4 -47q-5 -75 -8 -281.5t-17 -318.5q-14 -115 -30 -324t-23 -284q-2 -23 -11 -33q-6 -7 -20 -7q-6 0 -12 1q-10 2 -31 2q-46 -2 -54 6q-6 6 -6 32q0 10 1 23z " />
<glyph unicode="G" horiz-adv-x="1417" d="M76 418q29 -154 172 -293q38 -37 93 -61.5t97 -34.5t111 -21q99 -18 194 -18q71 0 140 10q209 28 321 147q34 37 60 91t36 88.5t27 105.5q8 35 12.5 73t8.5 90.5t6 74.5q2 18 2 33q0 39 -12 53q-15 21 -80 22q-54 3 -172 25t-183 22h-4q-35 0 -99 14.5t-100 14.5h-4 q-67 -3 -67 -63q0 -16 5 -101q4 -61 4 -102q0 -16 -1 -29q0 -15 23.5 -32t42.5 -17q37 2 41 49q2 52 2 91t-2 65q-3 29 4.5 35.5t36.5 -0.5q5 -1 39.5 -10t52.5 -9h17q62 0 161 -17q114 -21 153 -24q31 -3 31 -37q-3 -187 -53 -319q-47 -115 -150 -174q-96 -54 -203 -68 q-62 -8 -133 -8q-50 0 -104 4q-72 6 -110.5 46t-38.5 112q0 44 -7 256q-4 131 -4 223q0 56 2 98q-2 38 -2 73q0 89 13 153q50 223 241 309q82 38 145 56q54 15 120 15h22q79 -3 152 -40q82 -43 94 -136q1 -20 -8 -27.5t-29 -2.5l-82 24q-8 2 -14 2q-30 0 -41 -32 q-18 -40 14 -52q92 -36 169 -36q10 0 19 1q44 2 48 59q1 10 1 21q0 47 -15 94q-18 59 -34 80q-43 55 -123.5 87.5t-162.5 39.5q-34 3 -66 3q-179 0 -299 -82q-12 -8 -40 -28.5t-44 -29.5q-96 -53 -207 -157q-125 -117 -186 -273q-68 -184 -68 -361q0 -83 15 -165zM150 583 q0 11 2 35q3 272 163 469q1 2 4 6t5 6t5 6t5.5 6.5l5.5 5.5t6 4l6 2t6.5 1t6.5 -2q6 -3 6 -10t-3 -14t-7 -17t-5 -16q-9 -51 -12 -149t-4 -111q-1 -28 -1 -64q0 -55 3 -131q4 -126 4 -166q0 -79 4 -239q5 -24 -4 -29q-4 -1 -6 -2h-1q-2 0 -5 2t-4 3.5t-4 4.5l-4 4 q-73 76 -114.5 149t-47.5 161q-1 11 -5 40q-5 34 -5 45z" />
<glyph unicode="H" horiz-adv-x="1361" d="M61 59v-6q0 -19 17 -33q36 -34 93 -34q13 0 28 2q39 6 80.5 9.5t97 6t80.5 4.5q24 1 43 0t42.5 0.5t41.5 5.5q36 8 36 31q0 13 -12 31q-18 26 -63 37q-27 6 -27 28q-1 23 -4.5 93.5t-3.5 109.5v45v125q0 36 -1 65q0 77 3 105q1 27 10 35t35 8q33 -1 119 -5q75 -3 110 -3 q6 1 10 1q34 0 119 5q39 4 117 8q18 2 25.5 -4.5t7.5 -26.5q-1 -44 -2 -134.5t-2 -135.5q0 -46 -1 -137.5t-1 -136.5q2 -19 -6.5 -27.5t-28.5 -5.5q-11 1 -30.5 2.5t-35 2.5t-30.5 1q-24 5 -29 -14q-6 -17 10 -33q42 -39 95 -45q99 -12 169 -12q49 0 84 6q3 0 14 -0.5t17 2 t8 10.5q4 16 4 28q0 17 -8 27q-6 7 -14 11.5t-19.5 9t-15.5 6.5q-11 5 -21.5 1.5t-22.5 -3t-19 11.5q-8 7 -5 34t1 36v20q-2 33 -2 139q0 88 2 226q2 304 2 366q-1 86 -1 165q0 132 3 245q0 27 7.5 36t33.5 9t34.5 16t-2.5 41q-21 44 -66 44q-5 0 -11 -1q-22 -2 -46 -2 q-48 0 -106 7q-6 1 -25.5 4.5t-29.5 3.5q-4 0 -14.5 1t-16 1t-13 -4t-10.5 -13q-5 -7 -1 -16.5t6 -13t10 -11t10 -10.5q27 -29 86 -37q24 -3 32.5 -13.5t6.5 -33.5v-168q1 -17 1 -48q0 -46 -2 -121q-1 -42 -1 -75q0 -66 4 -94q3 -26 -25 -28q-218 -22 -381 -22q-56 0 -106 3 q-25 1 -33 11t-6 34q8 86 8 129q1 47 1 100.5t-0.5 119t-0.5 100.5q0 6 -0.5 20t-0.5 22t1.5 18.5t5.5 17.5q7 11 19.5 12.5t30 -2t26.5 -2.5q29 3 38 21.5t-5 43.5q-23 37 -76 37h-13q-60 0 -200 -8q-87 -5 -153 -5q-51 0 -88 3q-29 0 -35 -16q-7 -18 16 -41q4 -5 9 -8.5 t9 -6.5t10.5 -5.5t10 -4t11.5 -3.5l10 -2.5t11.5 -2.5t10.5 -2q18 -6 23.5 -14.5t3.5 -26.5q-2 -28 -7.5 -86t-7.5 -88q-7 -118 -12 -336t-8 -287q-3 -94 -3 -135t3 -135t4 -135q0 -51 -8 -60.5t-56 -17.5q-8 0 -12 -2q-3 -2 -11 -4t-13 -5.5t-7 -11.5zM281 397v40 q0 87 6 227q8 174 8 249q0 193 20 369q2 18 2 55q-2 37 19 55q14 12 35 12q11 0 24 -3q4 -1 7 -3t4.5 -3.5t2.5 -5t1 -5v-5.5v-5v-207q0 -71 -7 -202t-8 -168q-2 -95 -2 -181q0 -245 15 -411v-12q1 -13 1 -23q0 -50 -11.5 -61.5t-62.5 -10.5h-24q-28 0 -28 27 q-1 46 -1 136.5t-1 135.5z" />
<glyph unicode="I" horiz-adv-x="1208" d="M63 1475q-2 -7 -2 -14q0 -20 21 -36q33 -20 94 -24q66 -7 155 -7q36 0 75 1q37 0 34 -37q-4 -58 -4 -90q-4 -462 -4 -699q1 -63 3 -134t5 -158.5t4 -135.5q0 -40 -6.5 -46.5t-44.5 -6.5h-114h-119q-34 0 -43 -4q-23 -10 -23 -27q0 -11 10 -24q28 -35 80 -35 q242 -4 365 -4h22q198 0 541 33q25 3 32 18q3 6 3 12q0 11 -8 23q-26 38 -90 41q-28 1 -59.5 -2t-71.5 -8t-58 -7q-28 -4 -46 -4q-20 0 -26 5q-12 9 -16 69q-7 100 -7 192q0 78 5 150q2 13 2 39q0 23 -2 55q-3 54 -2 82v13q2 23 5 67.5t5 72t4 65.5q1 23 0 44v27 q-1 31 -1 165t-7 206q-4 42 3 50.5t50 14.5q10 2 31 2q35 0 103.5 -1t103.5 -1q24 0 32.5 16.5t-3.5 36.5q-23 41 -72 41q-28 0 -107 -0.5t-133.5 -2.5t-107.5 -7q-175 -19 -333 -19q-120 0 -232 11q-38 0 -46 -18zM553 731q0 63 1 133t2.5 156t2.5 133q1 17 3 101 q1 38 1 62q0 29 -2 38q0 27 10.5 34.5t34.5 8.5h6h9q19 -1 27 -7q10 -8 11 -32q5 -177 5 -316q0 -185 -9 -303q-3 -31 -3 -65q0 -11 -1 -24q0 -26 1 -58q1 -48 1 -66q-9 -99 -9 -189q0 -108 13 -204q1 -10 1.5 -19.5t-6.5 -16t-23 -7.5q-14 -1 -25 -1q-25 0 -34 5 q-13 7 -9 35q1 9 1 21q0 18 -2 44q-3 42 -3 56q0 81 -2 241t-2 240z" />
<glyph unicode="J" horiz-adv-x="1333" d="M63 463q4 -22 16 -83.5t17 -94.5q14 -87 76.5 -155t141.5 -100q72 -30 142 -30h13q120 3 260 41q5 1 19.5 4t21.5 4.5t18 6.5t19 12q134 113 139 247q1 27 5 80.5t5 79.5q4 68 10.5 206t10.5 208q3 54 3 153.5t1 122.5q2 56 2 100q0 66 -4 107q-4 33 20 33h7q29 0 88 7 q43 4 73 4q16 0 29 -1h39q23 0 35 29q1 4 1 9q0 16 -16 30q-24 24 -84 28q-39 1 -55 2h-9q-16 0 -45 -2q-39 -3 -54.5 -4t-54.5 -5t-54 -5q-59 -7 -154 -7h-14q-21 1 -40 1q-78 0 -128 -2q-34 -1 -63 -1q-89 0 -140 9q-40 4 -51 -20q-4 -11 2 -20.5t10.5 -13t18.5 -11.5 q19 -16 43 -19q16 -1 81 -7.5t101 -6.5q28 1 37.5 -10.5t9.5 -36.5q4 -274 4 -412q0 -322 -10 -469q0 -5 3 -36.5t3.5 -45.5t1.5 -44t-1.5 -48.5t-6.5 -42t-12.5 -42t-20.5 -32.5q-33 -38 -93 -56q-36 -10 -69 -10q-22 0 -42 5q-42 9 -74 36t-47 66q-43 98 -43 191v12 q0 42 -25 94q-7 26 -28 29q-6 1 -12 1q-32 0 -56 -22q-22 -22 -22 -49q0 -7 1 -14zM714 165.5q0 4.5 4 16t5 15.5q8 89 8 225q0 9 -1 18v92q0 86 1 148q6 159 6 319q-4 234 -8 351q-2 26 7 36q7 9 31 9h5q15 -1 39 -1q44 0 51 -10q6 -10 6 -59v-15v-14v-63 q-25 -673 -32 -805q-2 -48 -3.5 -65t-8 -56t-20.5 -66t-36 -51l-8 -8q-3 -3 -11 -12.5t-15 -13.5q-3 -3 -7 -3q-3 0 -6 1q-7 7 -7 11.5z" />
<glyph unicode="K" horiz-adv-x="1556" d="M62 5q4 -8 16.5 -17.5t13.5 -10.5q10 -10 25 -10q35 -3 101 -13q67 -10 121 -14q32 -3 63 -2q20 0 40 1q10 0 105 10q59 6 101 6q25 0 44 -2q39 -8 47 22q1 6 1 12q0 25 -29 42q-19 11 -57 11q-11 0 -23 -1h-6q-36 0 -36 33q0 5 1 10q6 47 6 130v14q0 13 -1 25 q0 75 3 124q-2 8 -2 32.5t2 67.5q4 85 4 107q0 32 7.5 44t28 23t34.5 25q5 4 15.5 16t18 18.5t18 12.5t20.5 4t20 -12q45 -45 76 -105q23 -46 66 -128.5t52 -100.5q38 -70 177 -289q1 -2 5 -7.5t4 -7.5t-1 -9q-4 -9 -27 -3q-12 1 -80 11q-33 4 -41 -17q-7 -17 15 -39 q27 -31 75 -34q49 -5 299 -25q27 0 35 18q11 30 -2 48q-25 29 -56 29q-9 0 -20 -3q-13 -3 -25 -3q-47 0 -81 48q-23 35 -67 110t-70 113q-32 47 -64 117q-54 118 -102 198.5t-117 143.5q-19 16 0 41q18 23 57.5 63t57.5 62q35 45 111.5 120.5t86.5 86.5q11 12 42 45 t52.5 56.5t39.5 47.5q2 2 11.5 13t13 15t12.5 13t15 12.5t15.5 8.5t19.5 6.5t21 1.5q23 -2 46 -2l46 2q33 0 33 24q0 10 -6 23q-19 43 -79 43h-11l-205 -12q-9 -1 -44 -1q-18 1 -43 1h-8q-66 0 -77 -8q-1 0 -10.5 -2t-12.5 -3t-9 -4.5t-9 -8.5t-4 -13q-1 -18 7.5 -27.5 t27.5 -19.5q16 -9 33 -10.5t41 1.5t34 3q25 0 31 -6q2 -6 0.5 -9t-6.5 -8t-6 -8q-20 -27 -39 -43q-43 -47 -124.5 -131t-107.5 -111l-209 -223q-1 -1 -6 -7t-6.5 -6.5t-8 -3.5t-9.5 1q-7 3 -2 28q6 171 6 172q2 111 2 334q0 22 6 29t27 4q1 0 104 -6q23 0 31 12t0 33 q-12 38 -51 41q-21 1 -68 4.5t-68 3.5t-69 -4q-30 -4 -139 -4q-42 1 -77 1q-106 0 -157 -9q-1 0 -6 -0.5t-6.5 -1t-6 -1.5t-6.5 -2l-5 -2.5t-4.5 -4t-3 -6t-1.5 -7.5q-2 -18 29 -41q22 -16 56 -16q11 0 24 2q22 2 33 -7t12 -32q6 -75 6 -120v-21q-3 -38 -11 -127.5 t-12 -155.5t-4 -127q0 -36 -5 -214q-2 -81 -2 -132q0 -62 3 -82q2 -46 4 -140t4 -141q0 -19 -5.5 -25t-26.5 -3q-22 3 -127 8q-2 0 -11 0.5t-13 0t-10.5 -2t-10 -5.5t-5.5 -11q-2 -5 -2 -10q-1 -4 1 -8zM379 461q2 50 2.5 167.5t3.5 180.5q3 51 10.5 153.5t10.5 153.5 q4 47 4 88q0 68 -11 123q-5 20 1 29q4 7 18 7q4 0 10 -1q4 -1 9.5 -1t12 0.5t9.5 0.5q49 -1 57 -10q6 -7 6 -41v-19v-100v-19q0 -179 -35 -518q-3 -36 -8 -221q-1 -42 -1.5 -120.5t-2.5 -142.5t-8 -120q-1 -12 -5 -18t-10.5 -6.5t-14.5 -1t-15 -0.5h-8q-12 1 -18 5 q-8 6 -9 25q0 27 -5 177q-4 107 -3 178q-1 28 0 51z" />
<glyph unicode="L" horiz-adv-x="1171" d="M63 -14q-1 -5 -1 -9q0 -7 4 -15q7 -12 14.5 -17t23.5 -13q12 -8 23 -4q7 1 15 1q29 -1 75 -9q43 -8 71 -7q11 0 19 1q17 2 45.5 12t42.5 13q15 2 42 2t42 2q103 12 304 13.5t221 2.5q89 3 92 90v49.5t2.5 63.5t9.5 51q3 9 3 18q-1 17 -9 31q-12 24 -37 31 q-23 9 -40.5 -0.5t-23.5 -32.5q-17 -88 -17 -136q0 -11 1 -20q2 -9 2 -16q0 -35 -37 -35q-3 0 -336 -6q-21 -2 -28 5t-6 30q1 75 1 141q0 182 -8 299q-2 27 -3 57.5t-1.5 68t-1.5 57.5v32q0 87 8 249q7 130 6 220q0 45 -1 80q-1 45 6.5 55t50.5 21q2 1 6 2t6 2q4 2 16.5 5 t18.5 9t6 19q-1 21 -14 33t-31 14q-19 0 -51 4t-51 6h-9q-17 0 -42 -4q-85 -19 -207 -18h-45q-55 0 -84 -2q-33 0 -39 -17q-1 -4 -1.5 -7.5t0.5 -7t1.5 -5.5t3 -5.5t3.5 -5t4.5 -5.5t4.5 -5q28 -31 65 -31h7q26 0 34 -11.5t5 -37.5q-10 -84 -17 -196q-8 -201 -8 -403 q0 -101 2 -201q-2 -132 -14 -390q-1 -15 -2 -34.5t0.5 -25.5t-4 -15t-6.5 -10.5t-16.5 -3.5t-23.5 -2t-38 1q-50 0 -54 -28zM328 63q10 225 10 269q-1 17 -1 44q0 54 3 146q2 55 2 96q0 62 -4 91q-2 29 -2 70q0 45 2 105q6 114 6 146v21q0 31 2 65q3 46 8.5 102t7.5 87 q0 36 31 36q7 0 15 -2q19 -4 28 -2q19 4 25 -3.5t6 -26.5q-1 -18 -1 -38.5t0.5 -48t0.5 -46.5q2 -18 2 -42q-1 -43 -7 -105q-10 -98 -11 -132v-63q1 -114 5 -306q4 -171 4 -287q0 -53 -1 -94v-12q-1 -28 -1 -40t-4.5 -26t-8 -17.5t-18 -8.5t-26.5 -5.5t-41 -2.5q-20 0 -26 5 t-6 25z" />
<glyph unicode="M" horiz-adv-x="1646" d="M61 1420q-1 -4 1 -8t5.5 -7t8.5 -7t8 -7q8 -7 18.5 -11t18 -4.5t21 -1t18.5 -0.5q29 -3 40 -16t9 -41q0 -14 -0.5 -35.5t0.5 -51.5t1 -52t-1 -37q-1 -62 -2 -185t-2 -184v-17q-1 -57 5 -154q6 -112 7 -163q0 -69 -3.5 -196.5t-4.5 -167.5q0 -21 -8.5 -28t-28.5 -5 q-72 0 -74 -33q-1 -25 19 -36t53 -17h12q27 -2 111.5 -6.5t130.5 -9.5q52 -6 92 -6q33 0 57 4q37 8 41 32q5 29 -30 41q-27 9 -27 39q0 2 -6 260q-1 42 -1 94q0 173 15 451q2 36 9 122.5t8 133.5v90q0 2 -0.5 7t0 8t1 7t3 6t6.5 3q3 1 6 -0.5t6 -4.5t4.5 -6t4 -7.5t3.5 -6.5 l248 -442q20 -36 62 -47q12 -3 22 -3q26 0 41 19q31 46 49 84q96 190 234 328q16 16 24 26q2 2 4.5 8.5t6.5 10t10 0.5q4 -1 6 -5t1.5 -7t-1 -9t-0.5 -8q-1 -16 -6 -81.5t-7 -105.5q-1 -27 -1 -54v-27v-25q0 -56 -3 -162q-2 -76 -2 -132q0 -42 1 -72q3 -55 3 -117 t-1.5 -137.5t-1.5 -116.5q0 -28 0.5 -36.5t-2.5 -22.5t-4 -15t-10 -4.5t-14 -1.5t-24 4t-32 4q-13 1 -24 1q-49 0 -54 -29q1 -9 -0.5 -14.5t4 -11.5t8 -9t11 -7t12.5 -6t13 -5t13 -5q4 0 8 -2q39 -2 117 -7t117 -7q23 0 63 8q25 3 31 29q2 17 -18 29q-28 24 -54 24h-4 q-20 -1 -27.5 8.5t-7.5 28.5q5 83 5 195q0 37 -4 163q-2 72 -2 124q0 40 1 69q4 64 7 181.5t4 144.5q6 113 26 364q3 26 29 31q16 2 22 5h10q8 -1 15 -1q38 0 43 29q1 7 1 12q0 15 -8 25q-12 14 -36.5 16.5t-48.5 2.5t-50 -2t-34 -1q-51 5 -93 5q-65 0 -106 -13l-4 -1 q-4 -1 -5.5 -1.5t-4.5 -2t-4 -3t-2.5 -4.5t-1.5 -7q0 -15 14 -26q22 -13 74 -25q40 -6 6 -31q-39 -31 -94 -105.5t-84 -101.5q-24 -24 -46 -53.5t-50 -72t-39 -58.5q-29 -41 -36 -44q-10 -3 -26 24q-3 4 -12 20q-151 276 -201 358q-3 4 -16.5 18.5t-17.5 25t1 20.5 q4 9 15 11.5t29 1t24 -0.5q2 0 9.5 0.5t10.5 1l9 1.5t9 3t7 5t6.5 7.5t3.5 10.5q-1 8 0.5 12.5t-2.5 10t-5 8t-7.5 6.5t-8.5 5.5t-9 4.5t-9 4q-9 5 -23 5q-7 0 -16 -1q-75 -6 -153 -9t-191.5 -4.5t-152.5 -2.5h-109q-35 0 -35 -24zM328 1000l2 325q0 20 7.5 27.5t27.5 9.5 q30 3 49 3q28 -1 35 -7q12 -12 12 -86v-64q0 -67 -19 -331q-11 -151 -14 -338q-1 -32 -1 -77q0 -67 2 -164t2 -164q0 -45 -1 -77q0 -21 -7 -27q-6 -5 -22 -5h-6q-43 2 -55 18q-9 13 -9 52q0 10 1 22q4 65 5 144q0 40 0.5 72.5t-0.5 57.5q-1 51 -3.5 148.5t-3.5 134.5 q-2 0 -2 183v143z" />
<glyph unicode="N" horiz-adv-x="1695" d="M61 1419q-1 -4 -1 -7q0 -15 14 -24q16 -11 39 -14t43.5 -13.5t23.5 -29.5q29 -284 29 -532q-1 -50 3 -165q3 -89 3 -147v-30v-16q1 -63 7 -175q8 -126 7 -184q-2 -15 -7.5 -20.5t-18.5 -2.5q-16 3 -32 3l-32 -3q-28 -9 -30 -26q-5 -19 20 -35q7 -6 17.5 -10t15.5 -5 t21.5 -3.5t17.5 -2.5q23 -3 65 -3q31 0 73 2q58 3 96 2q25 0 42 -1q21 -2 42 -2q61 0 128 13q16 3 24 5t16 10.5t7 21.5q-6 40 -53 47q-15 2 -43 -2q-20 -3 -27.5 3.5t-7.5 26.5q0 50 -3.5 143t-4.5 122q-3 130 -12 266v184l-6 395q-6 29 6 31q3 2 6.5 0.5t5 -2t4.5 -4 t4 -5.5l3 -6t3 -5l318 -474q8 -12 30.5 -37t32.5 -42q48 -76 143.5 -212t125.5 -180q15 -23 61.5 -84t67.5 -96q1 -3 6 -10.5t6 -11t-2 -11.5q-4 -5 -9.5 -5.5t-13 1.5t-10.5 2h-11q-51 0 -59 -34q-2 -10 0.5 -17t10 -11.5t13 -7t17 -5.5t15.5 -4q6 -3 16 -3q45 -7 141 -7 q38 0 84 1q40 0 48 12q3 6 4 13v5q0 37 -41 46q-25 3 -34 16.5t-9 40.5q2 123 2 214.5t-2 152.5q-2 50 -5.5 173t-7.5 190q-5 74 -21 434q-3 53 4.5 61.5t59.5 11.5q25 5 31 5q17 1 26.5 3t18 9.5t8.5 24.5q0 19 -14 30q-14 12 -39 19q-13 3 -31 -2q-26 -9 -88 -9 q-165 0 -213 -4q-43 -4 -43 -32q0 -29 41 -37q37 -8 64 -8q10 0 18 1q19 1 27 -6t10 -26q5 -46 8.5 -132t7.5 -124q9 -120 9 -152v-6v-36q1 -66 5 -176q4 -99 4 -164q0 -30 -1 -54v-189q0 -2 0.5 -8t0 -8.5t-2.5 -6.5t-6 -5t-8 0.5t-6 4t-5 7.5t-4 6q-39 60 -72 103 q-61 88 -199 282t-210 299q-24 35 -79.5 114.5t-96.5 140t-76 118.5q-17 28 -14.5 32.5t36.5 6.5q28 4 35 20q5 24 -18 41q-31 23 -58 23q-13 0 -34.5 0.5t-38.5 0.5t-33 -1t-94 -5q-70 -4 -90 -4q-2 1 -4 1h-93q-45 3 -78 3q-85 0 -90 -22zM297 1325q-1 6 -1 11q0 10 4 14 q6 8 24 8q10 0 34 4q20 4 33 4q17 0 24 -6q12 -10 9 -55q-2 -29 -2 -76q0 -41 2 -95q2 -63 1 -108q0 -38 -1 -63q-1 -15 -1 -37q1 -38 3 -98q1 -39 1 -66q0 -39 -3 -55q10 -380 12 -410l6 -209q0 -23 -10 -29q-8 -6 -35 -6q-6 -1 -11 -1q-16 0 -28 9q-10 8 -10 29 q0 78 -6.5 226t-7.5 214q-14 514 -25 670q-3 64 -12 125z" />
<glyph unicode="O" horiz-adv-x="1390" d="M70 698q-7 -50 -7 -115q0 -107 19 -257q13 -99 78 -170q94 -103 238 -163.5t291.5 -60.5t281.5 62q38 20 72.5 47t59 51.5t50.5 64t40.5 64.5t36 74.5t30.5 72t30 76.5q39 95 39 258v31q-4 146 -18 242q-55 337 -398 481q-16 6 -35 10.5t-31.5 6.5t-35.5 4.5t-33 3.5 q-21 2 -42 2q-61 0 -118 -19q-25 -9 -48.5 -24t-53 -37t-43.5 -31q-169 -106 -283 -344q-36 -78 -45 -100q-61 -137 -75 -230zM194 602q4 82 25 148q75 226 176 368q8 12 15 19q12 -3 6 -21q-21 -80 -31 -137q-29 -163 -29 -427v-65q0 -121 -6 -241q0 -50 6 -99 q5 -19 -4 -22q-2 -2 -4.5 -2.5t-4.5 1t-4 2.5t-4.5 3.5t-4.5 3.5q-104 86 -117 182q-13 93 -18 149q-3 31 -3 70q0 32 2 68zM487 618q3 266 68 508q27 96 125 176q94 77 185 76h7q29 0 72 -26q209 -131 238 -371q18 -156 18 -242v-16v-16q0 -121 -42 -233 q-45 -120 -128 -257q-66 -113 -192 -154q-8 -3 -38 -14t-44 -15t-38 -8q-19 -3 -36 -3h-8q-100 7 -146 45t-45 129z" />
<glyph unicode="P" horiz-adv-x="1468" d="M61 1425q-3 -16 19 -30q29 -21 66 -21q12 0 24 2q11 2 40 8.5t49.5 9.5t39.5 3t26.5 -6t10.5 -23q12 -42 12 -111q-1 -59 -4.5 -168t-5.5 -198.5t-2 -169.5v-36q0 -87 3 -275q2 -105 2 -177q0 -91 -3 -133q0 -26 -9 -36t-34 -9q-1 0 -74 6h-7q-35 0 -46 -28q-5 -5 -1 -13 t7 -11t11 -10t10 -9q17 -17 61 -17h113q195 0 293 2q17 1 190 17q37 5 41 24q5 21 -21 47q-24 21 -65 21q-60 -5 -72 -8q-30 -8 -39.5 2.5t-9.5 40.5q0 399 -2 600q0 19 6 25.5t25 3.5q31 -6 61 0q202 26 281 43q82 18 139.5 45.5t97.5 83.5q61 80 95 169q19 50 19 96 q0 35 -11 68q-22 58 -74.5 101t-118.5 67q-95 31 -186 58q-132 37 -304 37h-26q-103 -2 -340 -27q-163 -15 -258 -43q-27 -4 -29 -21zM448 1407q2 4 13 6l96 12q15 2 21.5 -3t5.5 -21v-123v-21q0 -63 -9 -167q-10 -113 -10 -173v-10q1 -36 1 -86q0 -89 -2 -224 q-2 -114 -2 -199q0 -73 1 -124q1 -29 2 -86.5t2 -85.5q0 -22 -6.5 -31t-28.5 -10h-8q-47 0 -58 12q-10 10 -10 49q0 10 1 21q7 108 7 232q0 79 -3 164q-4 134 -3 209v18q0 76 4 226.5t5 226.5q0 5 0.5 40.5t0 48.5t-5 38.5t-13.5 44.5q-2 7 -2 12q0 2 1 4zM686 883v65 q0 33 6.5 94.5t7.5 87.5q0 18 2.5 70.5t2.5 78.5t-4.5 67t-14.5 75q-2 4 -2 8q0 6 7 8q6 2 13 2q4 0 9 -1q18 -2 88.5 -3.5t107.5 -9.5q15 -3 56.5 -10.5t66 -12.5t64 -15.5t65 -23.5t53 -31t44.5 -44t24 -57q4 -19 4 -40q0 -53 -30 -115q-42 -86 -101 -138 q-56 -48 -174 -70q-139 -21 -240 -34q-17 -3 -28 -3q-15 0 -19 5q-8 7 -8 39v8z" />
<glyph unicode="Q" horiz-adv-x="1626" d="M63 610q-1 -29 -1 -56q0 -213 88 -368q57 -102 147.5 -159.5t214.5 -85.5q19 -4 45 -5q19 -2 35 -2h9q18 1 50.5 3t42.5 2q14 0 43 5t43 5q27 0 112 -6q44 -3 81 -3q33 0 59 2q55 6 107 31q24 12 90 30.5t98 41.5q67 47 125 143q25 43 43 94t37 119.5t29 100.5q4 12 4 23 q0 23 -17 41q-17 21 -42 21q-9 0 -19 -3q-40 -12 -90 -12q-36 0 -76 6q-8 1 -16 1q-36 0 -58 -20q-17 -16 -17 -44q0 -15 5 -34q12 -44 12 -82q0 -27 -6 -51q-4 -15 -18 -74.5t-23 -91.5q-13 -50 -71 -102q-39 -35 -73 -35q-17 0 -32 8q4 13 15 31.5t26.5 40.5t21.5 33 q78 138 103 356q12 92 12 185q0 34 -2 69q-6 119 -26 211q-40 178 -123 313q-61 98 -179 144q-73 29 -142 29q-42 0 -83 -11q-29 -8 -73.5 -34t-55.5 -31q-153 -75 -231 -193q-209 -307 -224 -586zM158 496q3 209 73 372q55 123 88 181q1 2 2.5 5.5t2.5 6t3.5 5.5t4.5 3h6 q4 -1 6 -5t1.5 -7t-1 -8t-0.5 -7q-1 -36 -7 -106.5t-7 -106.5q-4 -92 -4 -261t-2 -230q0 -14 -0.5 -48t-0.5 -52t1.5 -46t5.5 -51q6 -22 -4 -26q-11 -6 -27 10q-96 89 -125 231q-6 29 -16 140zM428 651q1 83 4 160q4 182 31 270q46 153 196 236q76 42 137 42q19 0 36 -4 q74 -17 145 -108q50 -63 72.5 -137t37.5 -178q10 -76 10 -165q0 -165 -36 -374q-21 -126 -111 -231q-62 -75 -178 -96q-102 -24 -242 -27q-41 0 -61 15t-29 55q-5 27 -7 56.5t-2 63t-1 43.5q0 55 -1 176q-1 80 -1 144v59zM1296 182q2 4 2 6q15 62 27 123q3 22 3 48.5 t-3 58.5q-5 31 -0.5 36t35.5 5h4q11 0 29 -3q22 -5 34 -3q11 1 15 -7q3 -4 3 -10q0 -4 -1 -8q-19 -58 -31.5 -92t-38 -80t-57.5 -80q-9 -9 -14 -9q-2 0 -3 1q-4 1 -5 4q-1 1 -1 2.5t2 7.5z" />
<glyph unicode="R" horiz-adv-x="1462" d="M66 1346q4 -6 10 -10t11.5 -6.5t15 -6t12.5 -4.5h22h6q31 0 109 8q37 4 45 -3t10 -44v-17q0 -37 -3 -97q-4 -74 -5 -93q-1 -35 -1 -79q0 -104 5 -254q7 -216 8 -277q1 -44 5 -131t4 -131v-13q0 -43 -3 -118q0 -22 -6.5 -31t-27.5 -10q-43 0 -43 -27q-3 -30 39 -41l22 -6 q33 -7 100 -12t97 -11q86 -15 156 -15q16 0 30 1q6 2 40 0q5 0 10 -1q26 0 38 7q23 10 23 29q0 18 -19 31q-27 14 -57 14h-10q-21 -3 -30 6.5t-7 30.5q2 53 2 160q-1 17 -1.5 155t-8.5 211v6q0 50 51 64q15 4 44 4.5t42 3.5q30 5 45 -18q84 -125 108 -224q27 -99 56 -149 q16 -28 84 -172q12 -17 6 -25q-7 -9 -27 -4q-59 12 -61 12h-11q-43 0 -49 -28q-1 -6 0.5 -11.5t4 -9t8.5 -7t8.5 -5t11 -4.5t10.5 -4q9 -4 27 -8q39 -9 85.5 -15t79.5 -8t87.5 -5t81.5 -5q31 -3 43 33q1 3 1 6q0 15 -26 30q-18 11 -67 11q-36 -2 -58.5 6.5t-34.5 40.5 q-7 22 -40 90q-4 8 -18 33.5t-19.5 35.5t-17 32.5t-17.5 36.5t-14 34t-13.5 38t-9.5 36q-21 88 -113 229q-1 2 -4.5 6.5t-6 7.5t-4 7t0.5 7.5t8 6.5q5 3 25 17.5t33 19.5q114 38 190 164q63 100 63 256q0 186 -176 249q-38 12 -84 21.5t-77.5 13.5t-87 10t-80.5 9 q-32 3 -74 3q-91 0 -225 -16q-23 -3 -149 -11.5t-191 -25.5q-4 -1 -21 -3q-16 -1 -24 -7q-7 -5 -7 -15q0 -8 5 -15zM420 1331q28 12 64 12q15 0 30 -2q5 -1 8 -4t3.5 -5.5t1.5 -9.5t1 -9q1 -20 4.5 -62.5t4.5 -62.5q6 -90 6 -252q-1 -14 -1 -28v-32q0 -159 5 -245 q8 -250 10 -375q0 -34 -1 -72t-2.5 -84t-2.5 -73q0 -23 -20 -24q-2 0 -5 1q-25 4 -71 8q-21 2 -21 29q2 77 3 159q0 136 -7 283q-13 235 -16 426v24q0 76 4 304v43q0 5 -2 18q-2 11 -3 19q0 11 7 14zM639 1321v5q0 28 31 28q65 4 88 4h8q140 -14 235 -29q78 -12 109.5 -46.5 t34.5 -113.5v-17q0 -268 -215 -370q-137 -67 -242 -69q-13 0 -18 3.5t-8 16.5q-8 78 -8 129q0 15 1 27q1 24 2 51q1 52 -5 118q-7 89 -7 127v9v19q0 40 -6 108z" />
<glyph unicode="S" horiz-adv-x="1220" d="M74 991q65 -153 198 -203q122 -47 269 -47h76.5t74 -10.5t70.5 -32.5q36 -25 41 -59q16 -133 16 -303v-170q0 -50 -16.5 -69.5t-65.5 -28.5q-118 -20 -193 -19h-24q-68 4 -117.5 20.5t-85.5 59.5q-6 7 -11.5 15t-9.5 14t-8 16t-6.5 15t-5.5 17.5t-4.5 15.5t-4 17t-3 16 t-3.5 18l-3 16q0 2 -1 5q-9 44 -9 64q0 9 2 13q7 13 51 15h15q13 1 20 1q3 0 17 0.5t19.5 1.5t12.5 8t8 19q2 15 -6.5 26.5t-15.5 15t-25 11.5q-12 4 -37 4q-39 0 -121 -4q-43 -2 -57.5 -20.5t-5.5 -61.5q17 -110 18 -121q12 -137 131 -223q99 -74 283 -78h21q98 0 219 25 q166 33 247 123q102 113 113 247q1 19 1 37q0 111 -52 197q-35 57 -86 94t-127 72q-149 70 -340 70q-18 0 -35 -1h-1q-34 1 -45 47q-8 36 -8 87v34q3 58 3 75v7q-7 34 -7 73v18q2 48 10.5 90.5t38.5 75t77 42.5q45 8 86 8q99 0 184 -45q10 -5 17 -14.5t4 -19.5q-3 -7 -9 -9 t-15 -0.5t-13 0.5q-4 0 -13.5 1t-13.5 1q-35 0 -41 -18q-10 -21 14 -45q23 -26 64 -29q25 -2 72 -2q71 0 71 74q-3 65 -49 94q-171 116 -351 116q-36 0 -73 -5q-21 -3 -42 -10t-48 -18.5t-39 -16.5q-128 -50 -205 -142q-51 -58 -100 -155q-25 -49 -25 -92q0 -32 13 -60z M182 1028q-1 6 -1 12q0 10 3 19q59 146 144 213q10 10 18 10h2q5 -12 3 -43t-6.5 -79.5t-4.5 -53.5q1 -28 6 -82t6 -61q4 -54 4 -82q2 -21 -5 -27t-27 2q-118 51 -142 172zM918 637q0 3 2 5t4 3q3 1 6 1q10 0 24 -13q86 -80 86 -208v-17q-3 -118 -69 -201q-1 -1 -4 -5.5 l-4 -6t-5 -5.5q-3 -3 -5 -3l-1 1h-6q-8 3 -8 29q0 33 4 57q-4 49 -8 165t-12 177q0 2 -2 6q-1 6 -1 8z" />
<glyph unicode="T" horiz-adv-x="1378" d="M61 1249q0 -29 17 -47.5t47 -23.5q24 -2 34.5 5.5t10.5 30.5q-2 35 -2 107q0 33 25 33q69 0 276 18q34 3 43 -33q8 -32 14 -64.5t9.5 -71t5 -62.5t3.5 -70.5t3 -64.5q3 -55 3 -148v-32q0 -23 -1 -44q0 -84 2 -135q1 -36 5 -235.5t11 -305.5q3 -33 -3 -39t-40 -4 q-31 0 -61 3q-42 4 -49 -23q-5 -27 32 -43q3 -2 10.5 -4t10.5 -4q21 -6 61.5 -6.5t51.5 -1.5q67 -8 145 -8q109 0 240 16q20 0 26 20q10 19 -8 37q-26 23 -56 23h-7q-38 0 -56 -4q-16 -4 -21 2t-5 22q-4 184 -4 275q0 40 10 246q6 126 6 207q0 51 -2 85v420q0 26 8.5 35.5 t34.5 9.5q57 -1 109 -1q88 0 163 3q27 1 37 -8t10 -33q-2 -41 -2 -125q0 -25 19.5 -41t48.5 -16q25 0 33 13.5t8 39.5q-1 29 -2 89t-2 89q0 39 -23 60.5t-65 21.5q-417 -6 -418 -6h-11q-38 0 -132 5q-50 3 -84 3q-40 0 -58 -4q-22 -2 -72 -6.5t-87 -7t-72 -2.5q-15 0 -71 -6 q-29 -3 -52 -2q-20 0 -35 2q-36 4 -53 -13.5t-19 -58.5v-117zM612 1343q-1 8 -1 14q1 9 3 13q4 7 23 8q28 3 42 4h7q10 0 20 -2q14 -3 19 -7t9 -17t4.5 -27t0.5 -41v-201q4 -40 4 -114q0 -29 -1 -65q-2 -124 -3.5 -180t-6.5 -179.5t-7 -179.5v-279v-3q0 -11 -1 -17 t-7.5 -11.5t-20.5 -5.5q-20 1 -24 13t0 24q1 27 1 61q0 61 -4 147q-7 136 -7 167q0 293 -9 471q-2 27 -5 98.5t-5.5 109t-10.5 95t-20 104.5z" />
<glyph unicode="U" horiz-adv-x="1380" d="M63 1423q-1 -5 -1 -9q0 -26 42 -48q20 -8 35 -8q24 3 31.5 -8.5t7.5 -36.5v-434q-5 -118 -5 -222q0 -216 20 -374q6 -46 18 -88q25 -70 78 -123q8 -8 16.5 -15t15 -12.5t18.5 -13t16 -10.5t19.5 -11.5t17.5 -9.5l20 -10l18 -10q22 -12 88 -25q39 -8 144 -8q90 0 135 4 q33 3 91 22t79 23q81 16 131 102q69 131 92 267q5 28 20 178q15 173 15 257v19q-1 29 -1 68q0 78 3 196q2 62 2 111q0 74 -4 119q-3 39 4 48.5t45 10.5q22 2 36 16q9 10 9 21q0 5 -2 10q-17 45 -59 45h-5q-72 -2 -86 -2q-2 0 -6 -1q-20 1 -80 3q-72 2 -86 2q-8 1 -14 1 q-26 0 -31 -17q-8 -23 23 -49q14 -13 32 -18.5t34.5 -5.5t35.5 1q23 1 31 -7t8 -30q0 -23 1 -82q1 -39 1 -71v-30q0 -42 -4 -83q-3 -55 -3 -154v-52v-51q0 -98 -3 -152q-18 -299 -98 -480q-38 -84 -131 -120q-78 -29 -246 -41h-13q-44 -1 -63 17q-21 20 -35 85 q-13 62 -15 143q-1 32 -1 62q0 45 2 84q0 152 -1 454t-1 453q0 17 1 24.5t9 15t25 9.5q31 4 31 22q0 12 -13 29q-24 33 -67 33h-7q-42 -1 -115.5 -5t-133.5 -6q-40 -1 -78 -1h-37q-17 4 -35 0.5t-21 -21.5zM287 885v450v19q13 5 27 6h13h22q20 -2 28 -2q7 0 10.5 -2.5t5 -7 t1.5 -8.5t-0.5 -10.5t-0.5 -8.5q0 -305 -2 -459q-4 -185 -8 -559q0 -49 18 -182q0 -1 1.5 -5t1.5 -6l1 -7q1 -2 -1 -4t-5 -3h-5l-1 -1l-3 1q-2 2 -3.5 2.5t-3.5 3t-3 4t-2.5 4t-2.5 3.5q-55 66 -70 209q-11 82 -15 186q-3 75 -3 141q1 23 1 47q1 36 0 77q0 53 -1 112z" />
<glyph unicode="V" horiz-adv-x="1536" d="M62 1424q-1 -3 0 -5q0 -12 12 -24q34 -30 82 -39q20 -3 40.5 -26.5t20.5 -45.5q0 -67 19 -145q7 -27 14 -83t14 -83q42 -159 96 -350q5 -17 17.5 -60t19 -66.5t14 -59.5t11.5 -66q4 -42 10.5 -87.5t16.5 -105t14 -86.5q7 -41 1.5 -48.5t-44.5 -10.5l-31 -6 q-44 -12 -14 -45q31 -36 92 -39q80 -4 154 -4q102 0 190 8q152 11 158 51q2 32 -51 53q-9 6 -23 6q-24 0 -30 10t1 33q21 88 52 183t72.5 212.5t62.5 180.5q22 63 63.5 202t67.5 212q15 41 38.5 117.5t32.5 103.5q10 32 25.5 40.5t52.5 2.5q15 -2 45.5 -7.5t46.5 -7.5 q31 -3 45 21q4 8 4 15q0 17 -20 32q-29 19 -61 25q-49 10 -115 10h-238q-25 0 -30 -10q-6 -14 12 -37q37 -41 78 -41h6q25 1 29 -10.5t-2 -26.5q-6 -26 -26 -74t-26 -72q-15 -56 -48 -157.5t-42 -132.5q-21 -69 -48 -151t-46 -136t-54.5 -153.5t-49.5 -139.5 q-1 -2 -2.5 -9.5t-4.5 -11.5t-8 -4q-4 0 -7 1.5t-4.5 5t-2 6t-1.5 8t-1 6.5q-55 236 -72 295q-43 167 -94 403q-5 24 -13.5 69t-14.5 73.5t-16.5 67t-23.5 69.5q-9 22 -13 33.5t-4 22t2.5 15t15 9t24 6t37.5 4.5q6 0 10 2q25 6 29 23.5t-15 36.5q-27 27 -76 27q-21 0 -46 -5 q-131 -19 -234 -19q-78 0 -139 11q-10 2 -31 -2q-22 -6 -26 -20zM313 1326q0 4 4 10t15 10q12 6 25 6q5 0 11 -1q20 -3 27 -26q38 -108 49 -176q5 -37 13 -77t19 -89.5t16 -75.5q5 -20 46 -203.5t64 -279.5q55 -225 68 -307l8 -45q1 -3 1 -5q1 -7 -7 -10q-10 -4 -27 -6 q-2 0 -9 -1q-7 -2 -10 -2h-2q-2 0 -6 1q-6 1 -9 3t-6.5 6.5t-4.5 11.5q-3 16 -13.5 60.5t-13.5 68.5q-51 338 -147 645q-19 62 -35 132t-34 160.5t-27 133.5l-6 26q0 4 -4 14q-4 12 -5 16z" />
<glyph unicode="W" horiz-adv-x="1687" d="M76 1376q34 -28 77 -28h9q7 0 7 -2q1 -13 3 -21q45 -176 47 -188q28 -146 97 -418.5t90 -366.5q6 -31 16 -84t19 -97.5t18 -84.5q6 -18 0.5 -26.5t-27.5 -4.5q-22 5 -53 2q-46 0 -51 -24q-4 -17 8 -30.5t31 -20.5q7 -2 47 -7q22 -1 48 -1q50 0 117 4q57 4 104 5 q38 0 69 -3q26 -2 52 -2l52 2q34 0 37 26q3 13 -3.5 25.5t-19.5 15.5q-11 2 -18 4.5t-11 7t-6 7.5t-0.5 10.5t2 10.5t4.5 13.5t5 14.5q35 91 61 254q20 132 24 138q4 4 7 -10v-3q83 -229 119 -381q2 -9 6 -18.5t6.5 -14t4 -9t-0.5 -6t-7.5 -2.5t-16.5 0q-3 0 -16.5 0.5 t-18.5 -0.5t-14 -2.5t-13.5 -7t-5.5 -14.5q-4 -22 13 -33.5t46 -17.5q14 -3 31 -3q23 0 53 5h80q15 0 29.5 -1t25.5 7.5t13 26.5q2 16 -8 26t-21 13t-29 6q-24 3 -30.5 15t0.5 34q2 5 5 16.5t5 16.5q86 278 125 419q39 138 105.5 398t97.5 374q3 17 18 23q20 10 29 10 q18 3 27.5 5.5t18.5 11t11 24.5q1 6 1 10q-1 4 -1 7q-2 7 -8 11t-9 5.5t-14.5 4.5t-13.5 3h-3h-6q-6 -2 -9 -2q-23 2 -49 2t-54.5 -2t-54.5 -2t-49 2q-10 1 -20 1q-43 0 -79 -11q-22 -7 -25 -17.5t11 -27.5q25 -25 51 -25h70q22 2 31.5 -6t3.5 -31q-22 -84 -58 -255 t-61 -263q-5 -18 -27.5 -93.5t-31.5 -109t-22.5 -91.5t-20.5 -105q-16 -97 -37 -101q-8 -1 -15.5 6t-13 20t-9 25t-7 25.5t-4.5 16.5q-11 35 -32.5 104.5t-33.5 104.5q-6 22 -14.5 45t-21 52.5t-17.5 43.5q-4 10 -10 35t-13.5 44.5t-17.5 32.5q-9 13 -30.5 6.5t-22.5 -24.5 q-2 -32 -13 -80q-40 -202 -84 -405q-16 -82 -26 -121q0 -19 -11 -19q-3 0 -5 1t-3.5 2t-2.5 4t-1 4t-1 5t-1 5q-4 35 -24 96.5t-25 87.5q-4 19 -28 114.5t-33 147.5q-32 196 -66 293q-13 40 -25.5 88t-19.5 78t-19.5 91.5t-17.5 82.5q-7 30 23 35q20 3 40.5 3t41.5 -3 q6 -1 12 -1q36 0 39 28q2 31 -39 45q-15 6 -33.5 8t-29.5 2t-35 -2t-31 -2q-158 -8 -176 -10q-12 -1 -32.5 -3.5t-28.5 -3t-22.5 -1t-28 1t-30.5 4.5q-10 2 -20 2q-27 0 -45 -13q-16 -10 -16 -22q0 -11 14 -23zM287 1356q1 0 53 6q7 -2 11 -5.5t6 -9.5t3 -10.5t1.5 -12.5 t0.5 -11q11 -101 61 -280t62 -240q5 -24 20 -118t30 -143q14 -50 48.5 -190t59.5 -215q7 -19 7 -33q0 -16 -8 -26q-9 -13 -30 -13q-12 0 -28 4q-2 2 -4 2q-13 4 -19.5 9.5t-8 9t-3.5 17t-4 20.5q-18 79 -56 266t-61 287q-24 103 -63 300t-58 281l-18 74q0 1 -3 11 q-3 9 -3 12q0 1 4 8z" />
<glyph unicode="X" horiz-adv-x="1509" d="M61 14q-1 -4 -1 -7q0 -29 38 -42q26 -10 80 -14q30 -5 62 -5h17q26 0 58 2q43 2 62 1q3 0 16.5 -2.5t18.5 -2t12.5 5.5t11.5 17q5 6 2.5 13t-2.5 10.5t-6 9t-8.5 7t-10 6.5l-10.5 7q-1 1 -5 4.5t-7 4.5q-16 4 -23.5 9t-6 15t4 15.5t11.5 19.5q80 118 235 303q22 28 37 -6 q17 -44 29 -61q22 -37 43.5 -80t46.5 -96t39 -82q11 -19 7 -30.5t-28 -12.5q-1 0 -10 -1t-11.5 -1t-9 -2t-9 -5t-5 -8t-2.5 -12q0 -37 43 -51q29 -8 59 -8l29 2q81 13 147 13q19 0 38 -1q11 -1 27 -1q37 0 99 5q44 4 75.5 3.5t50.5 -3.5q11 -3 21.5 2t14.5 18q9 25 -10 47 q-25 28 -53 28q-9 0 -18 -3q-13 -3 -24 -3q-41 0 -56 46q-11 36 -41 98q-31 61 -94 182.5t-95 182.5q-48 82 -65 135q-4 12 -4 24q0 24 16 46q87 115 188 276q7 12 28 47.5t30 50.5t28 46t32.5 50t31.5 43.5t35 45.5q21 28 47 31q13 0 41.5 1t44.5 1q37 -11 43 26q1 3 1 7 q0 21 -32 40q-11 7 -47 11q-19 2 -50 2q-39 0 -97 -3q-40 -2 -71 -2q-49 0 -75 5q-5 1 -31 -4q-30 -6 -18 -37q15 -35 74 -47q23 -4 24 -14t-10 -25l-127 -197q-111 -175 -145 -221q-10 -12 -17.5 -15.5t-13.5 1.5t-12 18q-21 42 -31 57q-34 61 -99.5 172t-93.5 160 q-17 31 -14 36.5t37 8.5q26 0 35 21q6 12 -10 32q-18 26 -66 37q-29 7 -83 7t-66 1q-28 3 -123 4t-146 15q-5 1 -10 1q-7 -1 -15 -3q-12 -4 -18 -17q-8 -16 13 -41q9 -12 24 -18q31 -10 51 -49q117 -201 158 -287q141 -297 217 -471q11 -23 -2 -39q-26 -37 -51 -65 q-138 -153 -262 -346q-10 -15 -15.5 -23.5t-15 -21t-18.5 -18t-21 -10.5t-26.5 -4t-30.5 7h-8q-1 0 -8 -0.5t-9 -1l-8 -2t-8.5 -3t-6 -4t-5.5 -6t-3 -8.5zM319 1333q4 7 12 9q3 1 8 1q7 0 13 -1q12 -2 17 -1q10 2 20 2q17 0 28 -8q18 -13 29 -43q21 -51 48.5 -101.5 t72 -122.5t58.5 -95q22 -36 57.5 -108t40.5 -81q9 -30 4.5 -45t-22.5 -37q-6 -6 -14 -19.5t-15.5 -22t-16.5 -7.5q-11 0 -17 9.5t-10 26t-7 22.5q-43 87 -242 495q-5 12 -12.5 24.5t-19 28.5t-15.5 23q-19 29 -19 44q0 4 2 7zM725 502q-2 4 -2 10q0 8 6 18q23 37 35 47 q6 5 13 5l13 -5q12 -10 31 -47q15 -29 57 -106.5t63 -118t52.5 -104t55.5 -117.5q10 -27 10 -36q-1 -2 -1 -4q-4 -6 -40 -5h-14q-43 1 -52.5 9t-27.5 52q-48 112 -136 271q-10 18 -63 131z" />
<glyph unicode="Y" horiz-adv-x="1325" d="M61 1446v-9q0 -19 7 -30q9 -14 34 -18q39 -4 48 -29q12 -35 39 -101.5t38 -101.5q80 -250 166 -434q29 -63 42 -94.5t27 -87.5q11 -49 11 -92v-13q-1 -17 -1 -35q0 -31 2 -65q4 -54 10 -118.5t8 -100.5q1 -15 0.5 -26.5t-10.5 -18t-31 -4.5q-20 0 -32 -14.5t-11 -37.5 q0 -20 12 -29t37 -12q8 -1 17 -1q20 0 48 4q40 7 51 8q33 2 97.5 7t97.5 7q13 0 22 8t9 19q4 38 -25 43q-6 1 -18.5 8t-20.5 6q-20 0 -26.5 9t-6.5 30v231l-1 8q-1 9 1 9q2 43 2 93l-1 96q0 42 13 88q13 48 42 87q17 23 45 75.5t45 76.5q8 11 46.5 61t55.5 80 q11 19 60.5 112.5t79.5 141.5q9 13 23 50t17 44q7 12 12.5 17t9 6t13.5 -0.5t17 -1.5q72 0 80 26q2 7 2 13q0 5 -2 10q-3 9 -15.5 15t-25 10t-35.5 6t-39 2.5t-43 1.5q-99 0 -123 -8q-29 -10 -25 -37q1 -18 11 -23.5t30 -7.5q29 -4 29 -20q0 -9 -10 -23q-11 -17 -31 -61 t-27 -56q-12 -21 -31.5 -61t-37.5 -72.5t-37 -58.5q-4 -5 -33 -44t-36.5 -49.5t-30 -43t-33 -51t-25.5 -46t-26 -53.5q-9 -23 -21 -23q-6 0 -9.5 3.5t-5.5 13t-3 10.5q-63 136 -105 268q-14 49 -34.5 102t-48 118.5t-40.5 99.5q-6 10 -5 20t16 17q26 9 27.5 29.5t-21.5 35.5 q-31 21 -57 21h-7q-57 -7 -156 -7q-39 0 -85 1q-14 0 -18 -0.5t-14 -2.5t-14.5 -8.5t-5.5 -17.5zM254 1380q8 4 19 4h7q14 -2 21 -18q12 -30 38 -92t45 -111t34 -94q82 -255 192 -485q4 -7 4 -31q-2 -121 -2 -145q-1 -3 -1 -10q0 -33 3 -134q2 -120 2 -143v-9q1 -3 1 -5.5 t-1 -4.5q0 -3 -1 -8t-4.5 -7t-8.5 -3h-4q-4 0 -7 1q-4 2 -5.5 6.5t-2 7.5t0 10t0.5 8v7q0 46 -11 139q-9 76 -9 125q0 16 1 30v135q3 25 -16 55q-128 248 -230 555q-4 13 -69 185q0 1 -4 10q-3 7 -3 11q0 7 11 11z" />
<glyph unicode="Z" horiz-adv-x="1193" d="M61 1313v-13q0 -36 10 -55q12 -22 50 -39q19 -10 29.5 -5.5t13.5 28.5q10 76 10 120v13q0 2 -1 8.5t-0.5 9.5t4.5 6.5t13 4.5q50 3 100 5q25 1 52.5 0.5t57.5 -0.5q60 -2 96 -3.5t110.5 -5.5t98.5 -5q43 -2 20 -41q-90 -143 -195 -344q-40 -76 -83.5 -160.5t-96.5 -189.5 t-82 -162q-17 -34 -54 -118.5t-70 -144t-76 -109.5q-6 -8 -2 -27q5 -21 19.5 -39t33.5 -22q30 -7 90.5 -8.5t89.5 -8.5q21 -5 79 -10q49 -4 71 -4h8q10 0 73 -10q57 -8 126 -10q49 -2 87 -2h29q46 1 129.5 4t118.5 4q38 0 38 34q0 7 -1 15q-4 19 -4 88q0 5 -0.5 15t-0.5 18 t1 14v7q0 49 -43 75q-21 12 -52 4q-6 -2 -8.5 -7t-2.5 -9t0.5 -12t0.5 -11q4 -63 4 -84v-6q0 -22 -8 -32.5t-33 -10.5q-15 -1 -66.5 -3.5t-75.5 -3t-64 -0.5t-72 3q-15 1 -62 4t-73 6q-11 2 -15.5 2.5t-11.5 3.5t-8.5 7.5t-1.5 13t4 20.5q10 30 38.5 83t35.5 69 q50 109 153 309.5t146 290.5q23 47 82.5 157.5t87.5 173.5q50 105 102 162q21 23 21 44q0 28 -41 50q-9 4 -17 6.5t-18.5 3.5t-15 1h-18.5h-17q-34 1 -142 1.5t-166 2.5q-280 9 -455 9q-59 0 -106 -1q-44 -1 -57.5 -14.5t-16.5 -57.5q0 -10 -0.5 -23.5t0.5 -31.5 q1 -36 0 -53zM234 122q-2 2 -2 6q0 10 12 32q83 157 157 317q37 78 79.5 161t100 192.5t83.5 158.5q22 42 84.5 149.5t93.5 168.5l20 39q6 20 30 32q15 8 31 8q8 0 15 -2q6 -2 10 -5q2 -2 3 -5q-1 -2 -3 -10q0 -2 -4 -10q-173 -335 -211 -408q-173 -338 -342 -678 q-33 -68 -57 -125q-8 -21 -19 -29q-6 -4 -14 -5q-8 0 -18 4q-43 2 -49 9z" />
<glyph unicode="[" horiz-adv-x="860" d="M62 -9q-1 -16 6.5 -27t16.5 -20t26 -13.5t31 -7.5t36 -3.5t35.5 -0.5t35.5 1.5t30.5 2.5l25.5 3q48 6 98 3t108 4t89 30q22 19 8 39q-35 55 -82 55q-15 0 -39.5 -1.5t-41.5 -2.5t-36 1.5t-30 10.5t-17 25.5t-2 44.5q11 74 23 214t20 204q8 59 19 222t27 251q6 35 18 59 t24.5 36.5t36 20.5t40 10t50.5 5t54 6h49q16 1 26.5 2t24 5t18 10t9 17.5t-3.5 27.5q-6 20 -30.5 28.5t-59 7t-65.5 -6t-66 -11.5t-44 -8q-32 -3 -133 -22t-157 -19q-50 0 -66 -33q-3 -7 -8 -20.5t-8.5 -24t-5.5 -20.5q-15 -74 -21.5 -158t-9.5 -197t-6 -161 q-3 -58 -22 -239t-19 -280q0 -24 -4 -34q-7 -20 -8 -36zM213 102q4 41 8 123q1 39 6 116.5t6 117.5q1 61 15 256l24 297q0 42 13 75q7 19 30 19q4 0 7 -1t4.5 -2t3.5 -3.5t3 -4t2.5 -6t2.5 -6.5q14 -30 11.5 -78t-9 -78t-18 -78t-15.5 -77q-4 -28 -4.5 -58.5t1 -71 t1.5 -58.5q-1 -35 -7.5 -100t-8.5 -93q-11 -199 -37 -297q-8 -28 -18.5 -36.5t-17 4.5t-3.5 40z" />
<glyph unicode="\" horiz-adv-x="800" d="M66 1360q26 -95 68 -210t72.5 -189.5t91 -214.5t81.5 -191q19 -46 72 -192.5t98 -245.5t100 -178q17 -26 51 -19q9 3 24 22t15 29l-2 5q-2 6 -4 8q-24 45 -48 95t-42 89t-43.5 100t-37.5 91t-39.5 102t-35.5 92t-38 102.5t-35 94.5q-1 3 -33.5 102.5t-65 187t-75.5 189 t-84 154.5t-72 38q-30 -18 -18 -61z" />
<glyph unicode="]" horiz-adv-x="862" d="M66 1225q-12 -37 9.5 -48.5t65.5 -13.5q6 0 16.5 0.5t18 0.5t12.5 -1q20 -3 54.5 -6t51 -5t41 -10t37 -20.5t24.5 -36.5t18 -59q15 -86 25 -247t18 -226q9 -69 21.5 -209t21.5 -209q4 -27 -2 -44.5t-17 -25.5t-30 -10.5t-36 -1.5t-41.5 2.5t-39.5 1.5q-47 0 -82 -55 q-13 -22 8 -39q32 -23 90.5 -30t108.5 -4t98 -3q287 -33 236 101q-7 17 -7 34q0 99 -19 280t-22 239q-3 49 -6 161t-9 196.5t-21 158.5q-4 20 -23 65q-16 33 -65 33q-56 0 -157.5 19t-133.5 22q-9 1 -43.5 8t-65.5 11.5t-66 6t-59 -7t-30 -28.5zM512 1021.5q2 32.5 12 61.5 q2 8 4 12.5t6 7.5t11 3q23 0 30 -19q11 -28 15 -75q7 -110 22 -297q14 -194 15 -256q1 -40 6 -117.5t6 -116.5q4 -82 8 -123q3 -27 -3.5 -40t-17 -4.5t-18.5 36.5q-26 98 -37 297q-1 19 -7.5 88t-6.5 105q0 11 1 94t-5 94q-3 26 -11 61t-15 63.5t-12 60.5t-3 64.5z" />
<glyph unicode="^" horiz-adv-x="583" d="M68 793q-15 -27 6 -48q8 -3 11.5 -1.5t10.5 7.5t10 7q8 5 15 16q17 29 41.5 61.5t37.5 48.5t52 58.5t45 48.5q11 11 15.5 9.5t11.5 -13.5q101 -155 133 -217q13 -23 32 -18q23 1 28.5 9t2.5 30q-2 8 -9 17t-9 13q-12 27 -47 90q-5 7 -43 64t-56 88q-23 44 -51 31 q-21 -9 -31 -33q-13 -25 -41 -57q-4 -5 -33.5 -38.5t-39 -44.5t-30.5 -37.5t-35 -47.5t-27 -43z" />
<glyph unicode="a" horiz-adv-x="989" d="M62 266q2 -64 34 -123q78 -146 236 -182q63 -14 144 -14q96 0 216 20q124 22 191 72q46 32 46 63q0 12 -7 23q-19 39 -19 84v448q-1 5 -4.5 95t-19.5 139q-26 95 -136 104q-27 2 -54 2q-128 0 -249 -36q-100 -30 -168.5 -69t-111.5 -110q-2 -4 -11 -13t-10.5 -13t2.5 -15 q10 -8 14.5 -8t17 4.5t17.5 5.5q15 2 27 19q34 54 87.5 82t133.5 49q18 5 35 5q27 0 47 -12q34 -20 49 -69q13 -42 15.5 -122t5.5 -101q1 -11 -6 -16.5t-17 -2.5q-35 12 -70 15q-10 1 -21 1q-26 0 -54 -5q-40 -7 -64.5 -13t-72.5 -20q-120 -33 -193 -162q-30 -58 -30 -118 v-7zM184 367q23 73 76 100q85 45 161 45q44 0 85 -16q41 -18 49 -47q4 -18 29.5 -78.5t25.5 -98.5v-25q0 -29 1 -72t1 -72v-25q-1 -24 -10 -32q-7 -7 -23 -7h-8q-14 2 -45 2h-25q-94 0 -157 27q-80 32 -134 120q-36 58 -35 118q-1 30 9 61zM666 889q-2 7 -2 12q0 7 4 11 t11 4q4 0 9 -1q58 -11 74 -51q12 -35 20 -108q11 -176 11 -295q0 -48 -2 -86q2 -29 2 -81q-1 -26 -1 -58v-48l3 -89q-1 -15 -27 -34q-20 -14 -31 -14q-5 0 -8 2q-4 1 -5.5 4t-1.5 5t0.5 6t0.5 6q-2 37 -4 110.5t-4 110.5q-4 82 -13.5 244.5t-13.5 244.5q-1 17 -4.5 33.5 t-9.5 39t-8 32.5z" />
<glyph unicode="b" horiz-adv-x="1107" d="M61 43q12 -41 63 -41h9h29q31 -3 128 -5t150 -11q94 -18 181 -18t167 18q82 19 155.5 90t82.5 147q21 182 21 257v12q1 16 1 32q0 144 -65 314q-26 73 -80 90q-57 17 -111 17q-135 0 -253 -107q-3 -3 -8.5 -9.5t-10.5 -10t-10 -1.5q-4 1 -6 5.5t-3 8t0 11t1 8.5 q4 91 4 198q0 150 -8 332q-3 29 28 29q10 1 29 1.5t35 1.5t31 3q20 5 32 17t11 28q0 16 -14.5 24.5t-35.5 8.5q-10 0 -31.5 -3.5t-33.5 -2.5q-19 1 -45 2q-60 0 -153 -8.5t-154 -8.5q-25 0 -45 1q-25 3 -48 -13q-24 -16 -22 -35q5 -24 35 -24q3 0 20 -3t25 -3 q22 1 29.5 -7.5t7.5 -31.5q0 -284 -2 -340v-58q1 -50 1 -122q1 -59 0 -112v-100q-2 -94 -8 -180q-1 -19 -1 -44q0 -42 3 -101q4 -68 4 -110q0 -17 -1 -29q-1 -42 -10 -50.5t-52 -13.5q-25 -2 -51 -21q-22 -16 -22 -28q0 -2 1 -4zM299 127q1 39 1 124v96q0 32 -1 60 q0 112 2 158q3 99 3.5 285t2.5 264q1 39 1 82.5t-0.5 96t-0.5 81.5q0 19 9 25.5t26.5 6.5t22.5 1q5 0 9 2q1 1 3 1t4 -2q3 -4 4.5 -4.5t2.5 -6t1.5 -7t1 -7.5t0.5 -7v-147q4 -43 6 -86.5t2 -92.5v-82.5t-2 -90.5t-3 -81t-4.5 -90t-4.5 -83q-14 -232 -14 -496 q0 -21 -7.5 -31.5t-27.5 -9.5q-21 0 -29 10t-8 31zM471 104q4 344 21 535q3 25 20 51.5t30.5 40.5t41.5 41q28 30 94 70q39 26 80 26h8q73 -6 100 -69q68 -159 68 -353v-16q-14 -181 -19 -227q-6 -55 -52.5 -95t-112.5 -51q-30 -6 -60 -7h-12q-25 0 -56 3q-38 4 -56.5 6.5 t-65.5 10.5q-16 3 -22.5 10t-6.5 24z" />
<glyph unicode="c" horiz-adv-x="897" d="M68 553q-7 -47 -7 -93q0 -64 13 -126q22 -108 91 -199t177 -131q27 -9 78 -9t95 5t81 12q99 23 192 127q40 50 46 80q2 9 2 16q0 25 -23 25q-31 0 -50.5 -7t-31.5 -32q-25 -47 -51 -75t-54 -40t-61 -15q-14 -1 -29 -1q-20 0 -42 2q-44 5 -63.5 25.5t-20.5 66.5 q-2 65 -3.5 235t-7.5 263q-3 56 -3 100q0 67 7 109q8 52 64 55q53 0 63 2q22 5 42 5q32 1 58 -13q42 -22 62 -78q4 -11 9.5 -17.5t14 -8.5t14 -2t16.5 2t16 2q20 0 30.5 14.5t8.5 30.5q-4 31 -12.5 51.5t-30.5 36.5q-83 62 -158 67q-18 1 -55 4.5t-56 4.5h-18 q-200 0 -303 -189q-76 -144 -100 -305zM182 580q19 143 86 260q1 1 2.5 5.5t3.5 6.5q1 1 3 1t4 -1t3 -2t1 -3t-0.5 -3.5t-1 -3.5t-0.5 -4q-1 -25 -1 -47q0 -78 11 -121v-422q0 -3 0.5 -10t0.5 -11.5t-2 -9.5t-7 -6q-2 0 -3.5 -0.5t-3.5 0.5q-4 1 -7.5 4.5l-5.5 5.5t-6 7.5 t-5 6.5q-80 99 -80 249q0 47 8 98z" />
<glyph unicode="d" horiz-adv-x="1120" d="M100 197q46 -138 168 -201q35 -17 71.5 -27.5t83.5 -13.5t70 -3q3 0 7 -1q24 0 78 3q62 3 73 3q50 2 156.5 15t163.5 14q29 0 39 8q3 2 15.5 8.5t17.5 10t10 12.5t4 20q-7 33 -62 33q-23 0 -69 -4q-17 -1 -23 5t-4 21q1 26 1 61q0 61 -4 147q-5 106 -5 167v31 q3 142 11 424t11 424q1 49 10 57t62 8q29 2 53 16q21 12 21 27q0 12 -7 23q-5 7 -14 10.5t-15 4.5t-18.5 1h-17.5q-21 1 -48 1q-71 0 -182.5 -6t-182.5 -6q-27 0 -48 1q-34 3 -55 -21q-16 -17 -16 -30q0 -17 30 -25q19 -4 48 -4q20 0 45 2q17 2 24 -5t4 -24q-2 -24 -2 -57 q0 -40 3 -92q4 -65 4 -105q0 -20 -1 -34q0 -109 -2 -160q0 -17 -5.5 -24.5t-20.5 3.5q-33 33 -111 41q-35 4 -67 4q-232 0 -293 -206q-48 -167 -48 -314q0 -129 37 -243zM180 449q0 191 43 319q35 114 137 117h7q90 0 163 -70q17 -17 30.5 -36.5t22 -35.5t14.5 -40t9 -38.5 t4.5 -43t2 -40.5t0 -43.5t-0.5 -41.5q-2 -133 -2 -404q0 -27 -12 -38q-10 -9 -30 -9h-7q-5 0 -20 1t-25 1q-93 0 -174 41q-54 26 -102 107q-60 105 -60 241v13zM721 94q0 225 2 336q6 159 6 306q0 88 -2 171q-1 36 -1 108v129q0 40 1 74q0 114 -4 162q-2 22 6 32.5t33 10.5 q21 -1 28 -8.5t7 -28.5q-1 -33 -1 -69.5t0.5 -81t0.5 -68.5q-3 -169 -21 -655v-43q0 -133 15 -305q1 -12 -1.5 -35.5t-1.5 -34.5q0 -15 -5.5 -22.5t-12.5 -9.5t-22 -3h-3q-11 -1 -17 5t-6.5 11.5t-0.5 18.5z" />
<glyph unicode="e" horiz-adv-x="1032" d="M61 274q-1 12 -1 25q0 144 73 352q54 162 248 277q122 74 245 74q52 0 103 -13q55 -12 93.5 -49t72.5 -96q31 -55 51 -180q5 -34 5 -75t-5 -87q-2 -27 -22 -42.5t-54 -19t-62 -3t-66 4.5t-48 4q-2 0 -7.5 1.5t-8.5 1.5q-122 13 -178 13q-11 0 -20 -1q-83 -6 -85 -45 q0 -22 -4 -85q-3 -50 -3 -89v-18q1 -44 9 -85q10 -48 34 -69t73 -27q34 -5 71 -4q65 0 136 14q107 23 137 146q0 1 2.5 10t3 10.5t2.5 9t4 9.5t5 7.5t6 7.5t7.5 5.5t10 5t12.5 2.5q37 6 57 -16q14 -15 14 -37q0 -9 -3 -20q-53 -175 -215 -211q-131 -30 -251 -30 q-109 0 -208 25q-116 31 -171 105t-63 192zM223 172q1 -1 3 -5l3 -6t3 -5.5t3.5 -5.5t4 -4t5 -2.5t5.5 -0.5q8 1 10 6t0 15t-2 12l6 184q4 32 4 48q4 32 4 49q1 14 1.5 57t2.5 66q0 6 17 86l20 88q-1 -5 -9 -15l-9 -10q-15 -25 -16 -27q-30 -58 -39 -98q-6 -20 -17 -58.5 t-16 -56.5q-7 -24 -14 -63q-5 -45 -6 -56q1 -123 36 -198zM399 586q-1 -6 0 -11q0 -21 9 -31q12 -12 41 -8q27 0 77.5 1.5t91 1.5t76.5 -3q3 0 9.5 -2t9.5 -2q22 -2 40 -2q45 0 61 14q15 13 15 55q0 20 -4 48q-4 20 -4 27q-9 115 -92 198q-22 25 -53 31q-16 4 -33 4 q-39 0 -83 -18q-66 -26 -89 -70q-64 -122 -72 -233z" />
<glyph unicode="f" horiz-adv-x="978" d="M61 948q1 -11 9 -16t14 -5.5t18 -0.5q89 0 134 2q39 3 46.5 -3.5t10.5 -45.5q2 -33 2 -78q0 -60 -3 -141q-7 -144 -7 -164q-6 -184 -6 -292q0 -61 2 -98q3 -33 -7.5 -41t-40.5 -8q-2 0 -15 0.5t-17 0t-14 -2t-17 -5t-14 -9.5q-19 -13 -19 -33q2 -22 31 -22h102q27 1 51 1 q48 0 85 -5q30 -3 63 -3q80 0 178 17q19 3 32 14.5t13 28.5q1 8 -1.5 13.5t-8.5 8.5t-10.5 4.5t-14 2.5t-12.5 2q-9 3 -37 -2q-23 -6 -34.5 3.5t-8.5 30.5q4 12 4 47q0 21 -1 49q-3 61 -3 85v10q1 30 11 115q10 79 10 125v8v26q0 39 2 83q3 57 8.5 127t7.5 108 q0 32 15.5 44.5t48.5 12.5q88 3 170 12q28 4 45 14.5t14 35.5q-1 12 -9 18.5t-15.5 8t-22.5 2t-21 1.5q-2 0 -6 -1t-6 -1q-115 -9 -162 -14q-25 -1 -35 9t-10 34q2 43 5.5 125.5t5.5 122.5q0 44 32 55q53 20 89 20h6q86 -4 126 -4q31 -2 41 37q2 11 2 12q0 3 -5 7t-8 5 t-9.5 3.5t-9.5 3.5q-32 12 -56 12h-25q-180 0 -306 -41q-116 -34 -154 -129q-50 -120 -53 -231q0 -37 -7.5 -44t-45.5 -9q-11 0 -140 -11q-18 -3 -28 -16q-9 -11 -9 -25v-6zM393 369q10 293 15 354q5 53 5 121q0 29 -1 61q-1 15 4 22.5t9.5 8.5t16.5 -0.5t15 -1.5 q20 2 27.5 -4.5t4.5 -28.5q-6 -65 -10 -130t-7.5 -170.5t-4.5 -129.5q-2 -40 -8 -119t-9 -141q-1 -28 -1 -55q0 -33 2 -64q3 -29 -29 -29q-17 0 -21 8.5t-4 24.5q2 6 2 23q-7 59 -7 161q0 41 1 89zM410 1063q4 118 26 184q16 46 41 74q10 13 19 13q3 0 6 -1q4 -4 4 -22 q-12 -197 -12 -199q-1 -8 0 -25.5t0 -25.5q-1 -31 -8 -37q-6 -4 -27 -4h-15q-9 -2 -15 -2q-11 0 -15 6q-4 8 -4 26v13z" />
<glyph unicode="g" horiz-adv-x="1044" d="M63 401q-1 -10 -1 -25q0 -43 10 -128q8 -71 37 -107q70 -85 186 -116q88 -23 174 -23q123 0 242 47q16 6 24 -6.5t9.5 -38.5t0 -49.5t-4.5 -52.5t-3 -35q0 -5 -1.5 -32.5t-2.5 -39t-3.5 -37t-7.5 -40t-12 -33.5t-18.5 -32t-25.5 -22q-43 -28 -112 -38q-22 -3 -45 -3 q-47 0 -97 14q-72 21 -107 77q-38 65 -59 165q-6 26 2 34t33 5q23 -5 48.5 -1.5t43.5 22.5q15 17 12 31t-25 18q-58 11 -144 11q-25 0 -52 -1q-26 -2 -40.5 -18t-8.5 -43q5 -21 12 -87.5t20 -101.5q29 -69 66 -115t96 -67q78 -29 165 -29q95 0 200 35q52 17 88.5 49.5 t54.5 72.5t29 88t11.5 97t2.5 100v58v37q1 50 6 103.5t14.5 125.5t12.5 103q3 22 12 95t13 102.5t12.5 92t15 102t16 92t19.5 99.5q2 8 2 15q0 15 -10 24q-20 15 -43 15q-15 0 -30 -6q-40 -17 -46 -58l-6 -28q-6 -21 -15 -24t-26 11q-101 86 -269 86q-26 0 -53 -2 q-156 -15 -258 -145q-141 -175 -164 -443zM188 330v53q-1 15 -1 31q0 41 9 85q13 61 27.5 100t44.5 106q54 128 146 172q2 1 6.5 4l7.5 5q2 1 5 1q1 0 1 -1q4 0 6 -3v-7.5t-6.5 -7t-7.5 -6.5q-73 -70 -80 -207q-1 -23 -1 -55q0 -39 1 -92q2 -69 2 -110v-29q0 -17 -1.5 -58 t-2 -63.5t0 -56.5t3.5 -62q1 -10 -1 -14.5t-6.5 -4.5t-8.5 2t-9.5 5t-7.5 4q-113 53 -127 209zM469 209q0 51 4 149q2 36 2 96q0 38 -1 86v75q0 67 3 106q9 126 109 137q19 3 38 3q79 0 134 -60q2 -2 8 -9t9.5 -10t10 -6t13.5 -2q17 0 21 -10q1 -5 1 -12q0 -8 -2 -19 q-11 -52 -20 -112t-19.5 -142t-15.5 -119q-12 -73 -12 -151q3 -31 -31 -49q-7 -4 -31.5 -19.5t-41.5 -23.5t-36 -13q-24 -7 -37 -7q-5 0 -8 1q-60 9 -78.5 29.5t-19.5 81.5z" />
<glyph unicode="h" horiz-adv-x="1079" d="M61 1440q-1 -7 5 -14t14 -9q24 -3 34 -15t8.5 -28t-1.5 -33q-2 -54 -1.5 -107.5t1.5 -107.5q2 -79 15 -229t16 -221q3 -63 11 -187q7 -125 11 -223q2 -46 2 -90q0 -50 -2 -98q0 -47 -31 -68q-21 -12 -17.5 -29t28.5 -26q30 -9 58 -9q11 0 21 1q35 7 85 7q20 0 42 -1 q8 0 37 -1t42.5 -0.5t34.5 6t38 17.5q27 19 20 39q-17 38 -40 31q-9 -2 -15.5 -2t-10.5 0.5t-6.5 5t-4 6t-2 9.5t-0.5 9v11q-2 96 -2 287q0 4 -2 29t-2 31.5t-1 28.5t-0.5 30.5t1.5 28t4 30.5t6.5 27.5t9.5 30.5t14 28q46 86 116.5 145.5t168.5 108.5q4 2 7 2.5t5.5 0.5 t5.5 -2t4 -2.5t3.5 -4t3 -4.5t3.5 -6l3 -5q7 -13 12.5 -28t8 -25.5t5 -30t3.5 -26.5t2.5 -30.5t1.5 -27.5q2 -37 2 -84q0 -95 -7 -232q-8 -172 -8 -264v-34q0 -25 -26 -33q-3 -1 -14.5 -3.5t-16.5 -4t-14 -5t-14.5 -8.5t-10.5 -12q-14 -19 -9.5 -32.5t27.5 -14.5 q41 -3 82 -3q74 0 150 10q40 7 43 47q0 8 -2.5 13t-8 7.5t-9 3.5t-11.5 1.5t-10 0.5q-22 3 -30.5 13.5t-10.5 33.5q-1 26 -1 59q0 84 7 214.5t7 214.5q0 33 -1 59q-1 21 -1 73t-3.5 89.5t-13.5 71.5q-7 21 -12 32.5t-15 27.5t-25.5 24t-37.5 10h-6q-58 0 -134 -35 q-94 -45 -215 -160q-1 -1 -4.5 -5.5t-6.5 -7.5t-7.5 -4.5t-9.5 -0.5q-4 2 -6.5 4.5t-3.5 7.5t-1 7.5v9.5v8v12q0 67 -10 182q-10 126 -12 156q-1 12 -7 73.5t-6 74t1 75.5q1 14 2.5 20.5t8.5 11.5t21 5q40 0 66 29q1 1 6.5 5.5t6 6t3.5 7t0 9.5q-5 21 -32 25q-11 2 -33 -2 q-28 -4 -61.5 -6t-58 -1.5t-64 1.5t-60.5 0q-14 -1 -39 5q-26 5 -40 6h-2q-14 0 -38 -9q-26 -13 -37 -45zM229 1380q-1 12 5 18q4 6 10 7q4 1 10 1h7q11 0 15 -1q4 1 8 1q9 0 14 -6q8 -8 7 -22q-2 -28 -2 -63q-1 -91 13 -227q18 -188 20 -259q2 -69 2 -175v-55q0 -48 -1 -90 q0 -83 1 -140q0 -43 1 -91t2.5 -107.5t2.5 -92.5q0 -2 1 -11q0 -4 0.5 -7.5t-0.5 -5.5q-1 -4 -3 -10q-3 -8 -10 -10q-5 -2 -13 -1h-6q-5 1 -9.5 2t-7.5 2t-5.5 3.5t-4 3.5t-2.5 4.5t-1.5 5t-1 6.5t-0.5 6v7v7v147v16q-1 111 -13 309q-14 213 -14 245q-2 39 -14 209 q-10 144 -9 233v29q0 18 -1 55t-1 57z" />
<glyph unicode="i" horiz-adv-x="702" d="M63 0q4 -27 50 -27q16 0 55 1q26 1 47 1q11 -1 20 -1q28 0 54 -3q18 -5 65 -5q32 0 78 2q95 5 130 5h11q29 -1 49 13q19 13 19 37q0 13 -7 22q-6 8 -19 10.5t-21 3t-25 0.5q-35 0 -42 8.5t-7 45.5v30q0 109 12 267q4 79 4 214t1 226v123q0 19 -15 26q-21 11 -41 11 q-15 0 -27 -5q-32 -13 -44 -51q-11 -34 -31 -51q-71 -71 -143 -94q-52 -18 -52 -59q-3 -62 -3 -96q0 -20 1 -31q13 -158 21 -529q0 -21 -7.5 -29.5t-27.5 -7.5q-8 1 -17 1q-26 0 -53 -11q-36 -15 -36 -39q0 -4 1 -8zM169 1255q-1 -39 23 -74q24 -37 64 -46q26 -6 52 -6 q62 0 122 37q84 53 105 134q8 35 8 65q-1 8 -1 15q-2 36 -32 56q-22 15 -57 16q-12 0 -25 -2q-15 2 -29 2q-21 0 -37 -4q-26 -6 -47 -33q-2 -4 -18 -8q-58 -14 -102 -68q-26 -40 -26 -84zM284 1279q0 39 46 62q30 10 51 23q11 7 20 7q9 1 17 -7q15 -14 14 -49 q-13 -56 -41 -78q-35 -28 -59 -27q-8 0 -15 2q-33 14 -33 67zM295 700q-1 6 -1 11q0 23 11 37q13 16 41 28q7 4 22.5 15.5t27.5 17.5q7 4 12 4q4 0 8 -2q10 -4 10 -20q0 -11 -2 -26q-2 -18 -2 -28q1 -13 1 -37t1 -36v-74v-36q0 -82 -6 -218q-8 -150 -8 -230v-18 q0 -13 -1 -19.5t-7.5 -12.5t-18.5 -3q-7 1 -20.5 -0.5t-22.5 -1.5t-16.5 8.5t-8.5 26.5q-1 35 -2 105.5t-2 105.5q-8 270 -16 403z" />
<glyph unicode="j" horiz-adv-x="974" d="M62 -228q2 -44 16 -88.5t35 -70.5q33 -42 79 -66t94.5 -30.5t103.5 -8.5h29q39 0 75 3q170 6 276 133q15 17 25 36.5t16 47t8.5 40t5.5 49.5t4 42q15 106 24.5 304.5t12.5 242.5q5 61 5.5 178t8 210t31.5 175q2 6 2 11q0 19 -28 24q-12 3 -22 3q-49 0 -79 -59 q-25 -48 -90 -80q-72 -40 -127 -55q-41 -12 -43 -43q-1 -18 -4.5 -51.5t-5.5 -61t-2 -51.5v-114q0 -278 -12 -496q0 -10 -0.5 -48t-1 -52t-2 -46.5t-4 -52.5t-7 -46.5t-10.5 -49.5q-14 -48 -63 -75q-27 -16 -54 -16q-20 0 -39 9q-77 34 -114 115q-9 18 -8.5 26.5t8.5 9.5 t20.5 0.5t26.5 0.5q57 7 57 53q0 35 -51 43q-52 9 -106 12h-3q-45 0 -67 -31q-21 -28 -21 -67q0 -4 1 -9zM510 1307q12 -46 55.5 -74t108.5 -29q19 -2 25 -1.5t24.5 4.5t24.5 5q105 22 131 119q2 8 2 15q0 21 -17 32q-52 36 -104 54q-40 14 -82 14q-14 0 -29 -2 q-58 -6 -106 -43q-36 -29 -36 -69q0 -12 3 -25zM553 -397q-3 3 -3 6q0 5 5 12q10 15 18 31.5t13.5 35.5t9.5 32.5t7 37t4.5 34.5t3.5 38t3 35q5 65 8.5 196t8.5 195q3 66 3 149t-3 181q-1 15 -1 29q0 69 13 122q3 19 16 27q6 2 68 35q23 12 30 5q4 -4 4 -13q0 -7 -3 -19 q0 -83 -3 -171t-9.5 -212t-8.5 -172q-1 -19 -3.5 -78.5t-4 -85t-5 -77t-7 -84.5t-9 -77t-12.5 -83q-9 -50 -40 -85.5t-76 -45.5q-8 -2 -14 -2q-9 0 -13 4zM629 1321q1 23 19 38q16 13 35 13h5q7 -4 23 -6t26.5 -7.5t12.5 -21.5q1 -22 -28 -45q-26 -20 -48 -20h-6 q-39 7 -39 44v5z" />
<glyph unicode="k" horiz-adv-x="1081" d="M61 1444q0 -15 27 -27q48 -21 55 -34q4 -8 4 -29q0 -16 -2 -39v-29q14 -151 15 -194q9 -137 12 -277q1 -54 1 -113q0 -136 -5 -294q-1 -29 -1.5 -90t-1 -99.5t-6.5 -90t-18 -91.5q-4 -14 -3.5 -24.5t2.5 -16t10 -10.5t13 -6.5t17 -4.5q58 -13 115 -13q27 0 53 3 q44 7 74 7q25 0 41 -5q21 -2 25.5 -2.5t24 3.5t24.5 5q24 4 24 23q0 27 -22 35q-13 4 -39 8q-36 3 -36 35q0 5 1 10q6 46 6 120q-1 6 -1 12v51q0 48 1 83v76q-1 25 1 39t15 25t39 10q1 0 17 8q32 23 40 20.5t27 -39.5q8 -11 15 -28q8 -20 40.5 -97t47 -111t42 -92t52.5 -104 q12 -22 7.5 -35t-32.5 -14q-5 0 -30 -10q-24 -12 -21 -33q5 -18 31 -18h129q59 0 86 12q26 11 24 33q-2 15 -26 18q-24 5 -41 33q-12 21 -33 74q-88 203 -143 323q-5 10 -32 77t-52 97q-13 13 2 25q15 13 29 27t30.5 35t23 30t27 37.5t23.5 32.5q40 56 79.5 86t98.5 31 q11 0 22 7t11 21q-1 7 -5 12.5t-7 7t-12.5 5.5t-10.5 4q-8 2 -24 2q-26 -5 -75.5 -7t-60.5 -3q-47 -6 -90 -15q-30 -4 -33 -26q-3 -16 23 -25q7 -2 10 -5t3 -6.5t-1 -5.5t-4 -7t-4 -7q-27 -45 -61 -87.5t-87.5 -100.5t-72.5 -80q-1 -1 -5.5 -6t-6 -6t-7.5 -4t-10 2 q-7 3 -2 28q9 147 9 271q0 71 -3 133v18q0 44 3 148q1 40 1 72q0 70 -6 96q-3 38 3.5 44.5t45.5 4.5h64q40 0 45 27q1 11 -5 18.5t-13.5 10.5t-18.5 5q-25 6 -51.5 7t-63 -1t-51.5 -2q-20 0 -80 -3q-52 -3 -89 -3h-12q-40 0 -79 6q-34 5 -80 5q-13 -2 -23.5 -10t-11.5 -19z M266 1227q-2 25 -2 53q0 40 4 86q2 24 16 30q8 3 15 3q6 1 13 -1q15 -4 28 1q3 1 5 1q8 0 12 -10q6 -13 3 -26q5 -63 5 -161v-34q0 -60 -0.5 -108.5t0.5 -85.5q2 -72 2 -123q0 -34 -1 -60q-2 -62 -7.5 -182t-6.5 -182v-25q0 -35 2 -85q2 -70 2 -97q0 -15 -10 -98q0 -8 1 -23 t1.5 -25.5t-1.5 -21.5t-10 -16q-7 -4 -17 -4h-5q-15 1 -24.5 6t-13.5 10.5t-5 17.5t0 19.5t3.5 23.5t3.5 23q6 68 14 201q4 92 4 200q0 289 -31 693z" />
<glyph unicode="l" horiz-adv-x="671" d="M61 1434q0 -4 1 -8q2 -4 7 -7t8.5 -4.5t12 -4t10.5 -3.5q2 0 13.5 -4.5t17.5 -3.5q24 1 33.5 -11.5t9.5 -35.5q1 -50 16 -273q3 -42 4 -120.5t3 -110.5q0 -10 6 -82q4 -43 4 -74q0 -20 -2 -35q-5 -92 -5 -155v-41q2 -71 10 -196.5t9 -196.5q1 -23 -6 -32.5t-29 -12.5 q-8 -2 -25.5 -4t-30.5 -5.5t-24 -9.5q-23 -15 -20 -33q6 -22 31 -22q19 -3 37 -3q24 0 45 5q103 23 309 39q9 2 33.5 0.5t33.5 3.5q35 9 37 24v4q0 21 -30 35q-8 4 -19 4q-24 -1 -31.5 10.5t-9.5 37.5q-3 69 -3 205t-3 204q-4 70 -4 228q0 78 1 180q2 182 2 293q0 74 -1 116 q0 35 13 50t46 18q1 0 6 0.5t7.5 1t6.5 1.5t6.5 2.5t5 3.5t3 5.5t0.5 7.5q0 14 -11.5 25t-27.5 14q-38 8 -76 8l-38 -2q-58 -8 -130 -8q-39 0 -81 2q-22 1 -66 4.5t-65 4.5q-50 0 -50 -39zM291 1346v10q0 20 6 28q8 10 35 7q6 -1 18 0.5t15 1.5q5 1 8 1q8 0 12 -4 q6 -6 8 -22q4 -54 4 -163q0 -73 -2 -171q0 -9 -1 -27.5t-1 -27.5q-1 -34 -1 -79q0 -82 4 -201q4 -135 4 -218q0 -30 -1 -53v-26q0 -48 2 -150q1 -51 1 -89q0 -63 -3 -87q-1 -14 -8 -21t-12.5 -7.5t-20.5 -1.5q-2 0 -4 1q-13 1 -17 7q-5 8 -5 22v19q0 90 -8 259 q-7 154 -7 248v39q0 30 1 63q-1 247 -27 642z" />
<glyph unicode="m" horiz-adv-x="1527" d="M66 979q-4 -8 -4 -15q0 -20 30 -36q34 -16 37 -70q1 -8 2.5 -21.5t2.5 -24.5t1 -21q8 -216 8 -396q0 -155 -6 -284q0 -14 -0.5 -19.5t-5.5 -14t-16 -14.5q-18 -9 -20.5 -25.5t14.5 -35.5q26 -30 62 -30q6 0 13 1q3 0 26.5 3.5t37.5 3.5h192q30 0 37 20q11 24 -8 43l-7 7 t-7 7.5t-7 6t-8.5 5.5t-8 3.5t-9.5 1.5q-18 0 -23.5 9t-7.5 28q-10 113 -10 259q0 68 2 144q0 19 6 27t62 97t96 128q109 109 201 129q11 3 20 3q34 0 45 -36q14 -52 18 -131q0 -77 -12 -231t-12 -232q0 -1 0.5 -42t-0.5 -42q0 -72 -12.5 -84t-83.5 -12q-16 0 -24.5 -1 t-18 -7.5t-13.5 -20.5q-5 -19 4.5 -31t30.5 -24q23 -14 35 -12q24 2 45 2q18 0 34 -2q19 -1 41 -1q17 0 37 1q44 2 79 12q22 6 28.5 21t-4.5 34q-1 1 -5.5 7t-5.5 7t-5.5 6.5t-6.5 6.5t-7 5t-7.5 3.5t-9 2t-10.5 -0.5h-9t-6.5 2t-4 3t-2.5 5t-1.5 5.5t-1 8t-0.5 7.5 q-1 30 -1 41t2 41t3 41q1 40 4 122.5t4 125.5q4 35 15 53q7 11 30 53t34 60t33.5 46.5t45.5 49.5q11 9 40.5 37.5t45 41.5t43.5 31t55 27q31 9 43 2t13 -37q8 -88 10 -127v-27q0 -101 -18 -278q-19 -184 -19 -283v-18q0 -25 -31 -25q-37 0 -75 9q-33 6 -47 -29 q-10 -19 16 -45q12 -12 39 -16q53 -6 106 -6q74 0 148 12q24 5 24 24q0 6 -2 13q-4 14 -7 22t-9.5 17.5t-17 13t-25.5 2.5q-14 -2 -22 3t-7 19q2 13 2 40v30q0 10 -1 19q0 35 5 51q33 170 33 393q0 141 -20 223q-21 88 -80 90q-17 1 -33 1q-70 0 -115 -29q-3 -2 -18 -12.5 t-19 -13.5t-17.5 -13t-19 -14.5t-17 -13.5t-18 -15.5t-15.5 -15t-16.5 -17t-14.5 -17.5q-17 -24 -62 -63q-12 -12 -17.5 -9.5t-8.5 19.5q-10 66 -33 123q-14 40 -52 68q-31 23 -61 24q-6 0 -12 -2q-132 -19 -221 -96q-64 -59 -135 -143q-1 -1 -3.5 -4t-4 -4.5t-5 -3 t-6.5 0.5q-6 3 -6 13l-18 143q-3 34 30 31q25 0 38.5 9.5t10.5 33.5q-1 25 -20 40q-17 13 -37 13h-6q-23 -2 -116 -12q-53 -6 -92 -5q-30 0 -52 3h-9q-36 0 -48 -29zM202 896q4 14 27 15q6 0 20 2q11 2 18 2q2 -1 3 -1q7 0 14.5 -8t8.5 -25q5 -53 5 -143v-18q0 -21 -1 -39 q0 -75 2 -120q-1 -34 -1 -84l9 -361q-1 -22 -9 -30q-10 -8 -34 -8q-25 2 -34 9.5t-9 31.5q4 315 5 419q0 21 -1 33q-4 183 -22 295q-3 10 -3 18q0 6 2 12z" />
<glyph unicode="n" horiz-adv-x="1087" d="M61 14q-1 -4 -1 -7q0 -24 30 -44q12 -8 39 -8h15q74 0 276 8q36 3 46 14q5 6 7 15q3 20 -7.5 37.5t-29.5 21.5q-6 1 -10.5 3t-7.5 5t-4.5 5.5t-2.5 7t-1.5 7t-1 8t-0.5 7.5q-9 62 -12.5 130.5t-5 158t-3.5 131.5q0 26 14 29q13 4 24.5 10.5t22.5 19t16.5 18.5t17.5 23.5 t14 20.5q89 128 235 201q32 15 56 15q17 0 29 -8q28 -19 30 -79v-12q2 -36 2 -86q0 -66 -4 -158q-4 -100 -4 -170q0 -43 2 -74q-2 -25 -2 -94.5t-6 -108.5q-1 -15 -7 -19.5t-20 -2.5q-2 2 -4 2q-17 0 -26.5 -1.5t-18 -9.5t-10.5 -24v-7q0 -34 45 -44q17 -4 36 -6 q19 -3 33 -3h10q10 0 26 1q22 1 33.5 2t37.5 3t35 3q22 3 22 31q-2 22 -21 39t-40 14q-19 -2 -26 3.5t-7 25.5q0 35 -1.5 98.5t-1.5 116t3 98.5q4 49 5 105q1 37 1 80q0 21 -0.5 44t-0.5 42q0 38 1 63q0 107 -53 170q-25 29 -69 47q-26 10 -47 11q-14 0 -26 -5 q-8 -3 -35.5 -15t-39.5 -18t-34 -16.5t-38.5 -21.5t-32.5 -23q-16 -13 -32 -27.5t-33.5 -34t-27.5 -30.5t-31 -36t-27 -32q-1 -2 -3.5 -5.5t-3.5 -5t-4 -4t-4.5 -2t-5.5 0.5q-2 1 -8 24q-1 30 -4 92.5t-4 94.5q0 27 18 36q31 19 13 52q-10 17 -14 23q-3 4 -15 12q-8 5 -16 5 q-4 0 -9 -1q-42 -10 -118.5 -16t-104.5 -11t-35 -20.5t10 -40.5q2 -4 8.5 -15t10 -19.5t4.5 -17.5l6 -184q5 -87 5 -195q0 -54 -1 -114q0 -3 6 -285q0 -25 -7.5 -35.5t-31.5 -7.5q-35 0 -43 -31zM213 848v5q0 20 7 29q8 10 32 13q5 1 9 1q15 0 21 -8q7 -10 5 -34v-266 q3 -56 7 -157.5t8 -185.5t9 -159q1 -6 1 -11q0 -16 -8 -23q-10 -9 -34 -11q-12 0 -19 3t-9.5 10.5t-3 12.5t-0.5 17q-5 91 -5.5 275t-5.5 276q-10 176 -14 213z" />
<glyph unicode="o" horiz-adv-x="956" d="M90 240q6 -22 16 -45t23.5 -51t20.5 -44q38 -97 153 -123q34 -8 76 -8q75 0 176 25q137 39 201 176q72 163 112 332q19 94 27 186v16q-1 97 -35 162q-38 70 -117 115q-8 4 -23.5 10.5t-27.5 12.5t-22 12q-46 24 -102 34q-23 4 -47 4q-33 0 -69 -8q-60 -14 -106 -51 q-9 -8 -33.5 -28.5t-37 -31.5t-31 -29t-32 -35t-24.5 -35q-126 -205 -126 -407q0 -95 28 -189zM182 385v21q14 231 99 382q25 42 92 121l3 3t3 3.5t3 3.5t3 2.5t3 1t3 -0.5q4 -3 4.5 -6.5t-1 -6.5t-5 -7t-4.5 -5q-11 -12 -45 -61q-39 -61 -51.5 -130.5t-12.5 -160.5 q1 -69 11 -406q0 -15 -4 -18q-7 -5 -13 6q-72 137 -88 258zM401 530q3 117 21 203q23 97 133 203q10 9 26 9t37 -9q149 -68 149 -186q0 -10 -1 -21v-10q0 -139 -55 -328q-31 -111 -78 -211q-43 -93 -141 -117q-16 -4 -28 -4q-18 0 -28 8q-18 13 -22 52q-2 23 -2.5 68 t-1.5 59q-2 28 -6 128q-4 82 -3 134v22z" />
<glyph unicode="p" horiz-adv-x="1269" d="M61 -459q0 -6 2 -10.5t4.5 -7t8.5 -5.5t9 -4t10 -3t9 -3q42 -10 71 -10q7 0 14 1q33 3 87 11q43 7 73 7h13q12 -1 30 -1t41 1t44 1t39 -1q38 -1 70 -6q17 -3 61 6q28 6 31 30q1 31 -21 42t-50 8.5t-56.5 4.5t-36.5 31q-6 18 1 55.5t7 47.5q1 18 1 50q0 23 -1 54v44 q0 40 2 61q3 31 21 44t38 12.5t53 -4.5t50 -3q14 1 59 1.5t68 2.5q137 9 242 97.5t137 221.5q16 73 16 191q0 43 -2 92q-7 146 -87.5 251t-215.5 153q-54 21 -119 30q-56 8 -106 8h-16q-58 -2 -125 -2q-49 -1 -157 -10q-97 -8 -150 -8h-11h-78q-10 -1 -19.5 -0.5t-19.5 -0.5 t-17.5 -3.5t-12.5 -10.5t-6 -20q0 -7 1 -12.5t4 -10t5.5 -7.5t8.5 -5t9 -3.5t11 -2t11 -1t12 -1t11 -0.5q44 0 47 -45q0 -23 4 -84q4 -42 4 -71q0 -13 -1 -23q-5 -65 -5 -167v-60q1 -72 1 -129.5t-1 -100.5q-2 -46 -2 -102q0 -94 6 -214q6 -140 6 -238q0 -35 -1 -64 q0 -35 -12.5 -49t-45.5 -11q-16 2 -41 -10q-37 -18 -37 -35zM309 113q-1 20 -1 46q0 52 3 127q4 111 4 152q1 68 1 144t-0.5 169t-0.5 144q0 2 -0.5 10t0 11t2 9t4 9t8 6t13.5 4q19 2 29 -3.5t14 -25.5q6 -40 7 -119t7 -118v-424q0 -133 -2.5 -330t-3.5 -260q0 -29 -4 -43 q-2 -12 -8 -16q-5 -3 -14 -3h-5q-13 1 -16 1q-12 -1 -15 5t-3 21q-1 109 -9 260.5t-10 223.5zM512 897q0 44 8.5 51.5t54.5 7.5q156 0 218 -12q108 -20 179 -90.5t91 -179.5q15 -85 15 -165q0 -145 -50 -276q-23 -56 -108 -110q-81 -51 -138 -51h-6q-32 2 -105.5 2.5 t-113.5 3.5q-21 3 -28 10.5t-7 26.5q0 40 -1 120t-1 121q-8 360 -8 541z" />
<glyph unicode="q" horiz-adv-x="1212" d="M61 365v-6q0 -98 93 -213q95 -118 190 -144q60 -17 122 -17q87 0 179 33q22 7 28.5 2.5t6.5 -22.5q3 -58 9.5 -132t9.5 -134q2 -35 2 -75q0 -27 -1 -56q-2 -33 31 -62q5 -5 14 -5q14 0 37 15q174 93 324 172q29 16 41 46q4 11 4 19q0 5 -2 8q-5 9 -27 9q-9 0 -18 -1.5 t-16 -3.5t-17 -6.5t-14.5 -6.5t-15.5 -8t-15 -8q-17 -10 -24.5 -6.5t-8.5 24.5q-2 48 -8.5 94t-9.5 88q-6 87 -6 88q1 51 3.5 153.5t3.5 153.5v40q0 45 -1 114q-1 34 -1 86.5t1 122.5t1 122.5t-1 88.5q-1 16 5 23t21 12q16 3 33 10q32 16 27 43q-7 22 -34 22q-4 0 -9 -1h-25 q-20 -7 -39.5 -11.5t-42.5 -6t-38 -2.5t-42.5 1t-38 3t-42.5 4.5t-39 4.5q-19 4 -40.5 2t-31.5 -18q-20 -29 -57 -29h-9h-32q-61 0 -140 -28q-124 -48 -219 -160q-33 -38 -55.5 -83t-34 -79t-19 -94t-8.5 -87.5t-4 -98.5zM166 479v4v11q0 103 51 200q57 106 155 170 q77 51 161 51q23 0 47 -4q7 -1 13 -3.5t12.5 -8.5t9.5 -8.5t10 -11t8 -9.5q46 -58 46 -138q0 -9 -1 -19q-9 -139 -9 -283q0 -127 7 -258q2 -28 -7 -44t-34 -28q-52 -24 -106 -24q-86 0 -179 59q-59 39 -121 111q-29 35 -45 103t-18 130zM776 403q-1 52 -1 108q0 131 5 282 q1 13 1 31q0 36 -3 91q0 34 25 34q4 0 10 -1q12 -3 25 0h6q9 0 16 -6q10 -8 10 -29q-2 -111 -2 -350q1 -31 1 -74q0 -74 -3 -185q-2 -136 -2 -216v-41q0 -60 9 -128t12 -107q0 -53 2 -80v-6q0 -34 -33 -50q-31 -16 -40 -16h-2q-5 4 -7 45q-2 62 -15 303.5t-14 394.5z" />
<glyph unicode="r" horiz-adv-x="907" d="M66 1006q-5 -12 -5 -21q-1 -13 9 -23q16 -16 55 -16q19 1 24.5 -3.5t8.5 -22.5q4 -15 4 -31t-2 -35.5t-2 -30.5v-678q0 -47 -8 -58t-52 -21q-13 -4 -20 -13t-7.5 -16t-0.5 -21q0 -30 36 -30q10 1 32 2t32 2q176 4 262 8q29 0 41 29q2 5 2.5 9t-1 8.5t-2 7t-4 6.5 t-4.5 5.5t-5.5 5.5t-5.5 5q-4 4 -10 6t-10.5 2.5t-13.5 0t-11 -0.5q-19 -2 -27 5.5t-8 27.5q-3 56 -11 118q3 75 3 144t-3 133v18q0 76 22 146q26 78 75 176q22 46 63 53q12 2 40.5 7.5t43.5 7.5q15 3 29 3q53 0 86 -40q11 -13 17.5 -26.5t9.5 -30.5t4 -26.5t1.5 -32 t0.5 -28.5q1 -21 0 -32t-12 -20.5t-33 -8.5q-22 0 -31 -39q-5 -24 22 -35q16 -7 33.5 -7.5t40 2.5t33.5 3q20 -1 29.5 10.5t9.5 32.5v186q1 31 -22 74t-58 75.5t-64 33.5q-17 1 -33 1q-118 0 -196 -46q-52 -30 -80 -84q-2 -6 -5 -10t-7 -3q-6 2 -6 17q-3 18 -4 34 q0 32 14 58q12 22 2.5 40.5t-31.5 20.5h-26q-83 0 -224 -10q-29 0 -40 -24zM221 939q0 9 3 11t9 3q4 0 9 -1q49 -6 57 -15q6 -7 6 -41v-19q-12 -435 -12 -447v-15q0 -77 8 -288q0 -4 0.5 -12t0.5 -12t-1.5 -10t-5 -9t-10.5 -5.5t-17 -2.5h-4q-16 0 -24 6q-10 7 -11.5 15.5 t-1.5 25.5q-2 131 -2 373q-1 37 -1 106v121q0 37 1 69z" />
<glyph unicode="s" horiz-adv-x="927" d="M63 715q-3 -23 -3 -44q0 -39 10 -65q16 -40 69 -78q41 -32 87 -40q38 -7 88 -7h24q45 0 53 2q8 1 16 1q56 0 99 -48q51 -60 51 -180q-2 -101 -33.5 -135.5t-130.5 -38.5q-9 -1 -18 -1q-57 0 -99 28q-48 32 -47 108q0 31 -30 57q-24 20 -52 11q-18 -5 -22 -39 q-1 -12 -1 -23q0 -103 65 -168q72 -72 173 -82q16 -2 32 -2q22 -1 45 3q39 6 91 18t74 16q3 0 17.5 3t18.5 4t17 3.5t18.5 4t17 5t18.5 6.5t16 7t17 9t16 11q103 78 106 234v8q0 96 -73 172q-112 114 -299 114q-19 0 -39 -1q-35 -3 -55.5 10.5t-34.5 44.5q-18 38 -18 77 q0 40 19 82q38 82 107 113q55 27 102 27q97 0 154 -119q5 -10 7.5 -14.5t9 -11.5t12 -5.5t16.5 3.5q36 19 36 47q0 8 -3 16q-68 185 -250 191h-9q-199 0 -353 -134q-30 -26 -47 -42.5t-38 -42.5t-32 -54t-15 -61zM150 655q0 6 -1 11q-1 52 25 92q28 44 80 90q2 2 7.5 4 t6.5 2q4 -12 4 -16q-23 -71 -23 -130q0 -54 19 -100q6 -12 -6 -18q-7 -4 -17 -3q-20 0 -51 17q-45 26 -44 51zM641 408q-2 8 -2 13q0 8 4 11q3 2 5 3h3q1 -1 3 -1q4 -2 5.5 -2.5t5.5 -4t5 -3.5q6 -5 23.5 -20t25 -22.5t19 -21.5t16 -29t4.5 -32q-2 -12 -5 -37.5t-6 -40 t-13.5 -33t-28.5 -30.5q-20 -12 -35 -17q-6 -1 -10 -1q-6 0 -9 2q-5 4 -2 20q12 61 12 115q0 71 -20 131z" />
<glyph unicode="t" horiz-adv-x="1024" d="M63 948q-1 -8 -1 -14q0 -27 13 -40q16 -16 56 -11q49 6 158 14q23 3 34 -5t11 -32q2 -72 10 -225q4 -98 23 -393q-2 -21 -2 -43q0 -66 18 -138q11 -43 42.5 -72.5t68.5 -29.5q199 3 321 102q44 35 47 95q0 28 -20 39q-22 11 -43 -7q-18 -15 -33 -30q-36 -39 -88 -58 q-17 -6 -23 -1t-4 24q3 69 3 108q0 23 -1 35q-5 109 -7.5 317t-6.5 302q-1 20 7 28.5t30 8.5q30 1 92 4t92 4q40 3 68 18q16 9 21 12.5t11 13.5q3 6 3 13q0 5 -2 10q-14 45 -54 45h-8q-35 -6 -100 -6h-11q-7 0 -14 1q-64 0 -98 -5q-26 -3 -34.5 6.5t-10.5 36.5 q-2 24 -6 80.5t-8.5 98t-12.5 79.5q-9 49 -76 68q-7 2 -13 2q-11 -1 -19 -7q-14 -10 -19 -28q-8 -31 -31.5 -57.5t-38.5 -36.5t-55 -35q-16 -10 -21.5 -20t-4.5 -29q4 -29 4 -83.5v-66.5q1 -22 -7.5 -30.5t-29.5 -10.5q-38 -1 -105 -7t-90 -7q-32 -3 -35 -37zM418 860v8 q0 14 6 21q8 9 27 12q20 4 31.5 6.5t24 4t17.5 1t12 -1.5t8 -5t4.5 -9.5t2 -13.5t0.5 -17.5t0 -22.5t0 -28q12 -545 12 -547q0 -12 0.5 -26t-0.5 -28q-1 -29 -3 -64t-3 -54q0 -5 -0.5 -8.5t-2.5 -6.5t-3.5 -5t-5 -3t-5 -1.5t-6.5 -1t-6.5 -0.5h-7h-6.5h-14h-10q-10 1 -18 9 t-9 23q-9 68 -9 111q0 15 1 27q-11 205 -27 446q-2 28 -5 87t-5 87zM418 1030v60v5q0 52 19 82q20 31 73 56q9 2 14 2q4 1 6 -1q2 -4 2 -15q10 -141 11 -172q0 -25 -15 -27q-63 -8 -92 -10q-2 0 -3 -1q-8 -1 -11 5q-4 6 -4 16z" />
<glyph unicode="u" horiz-adv-x="1277" d="M61 971q0 -44 54 -51h28q19 0 19 -17q0 -21 2 -129q1 -49 2 -81q0 -38 -2 -50v-38v-91q1 -39 1 -69q0 -39 -1 -60v-10q0 -60 20 -203q22 -147 144 -166q47 -7 92 -7q166 0 301 93q2 1 7.5 6t9 7.5t8.5 1.5t8 -7q14 -19 -19 -30q-38 -12 -33 -45q6 -42 48 -50q23 -4 61 -4 q25 0 57 2q168 10 289 13q33 0 55 30q5 8 5 16q0 17 -21 34q-34 29 -69 29l-23 -3q-28 -8 -40 2t-9 39q6 177 6 180q-8 365 -14 539q0 15 0.5 21.5t3.5 15.5t11.5 13t22.5 5q19 0 31.5 13t11.5 34q-3 39 -49 43q-7 1 -36 4t-44 3q-6 0 -13 -1q-44 -1 -114 11q-82 12 -116 14 h-10q-46 0 -56 -33q-8 -23 5.5 -38.5t37.5 -18.5q37 -3 47 -22.5t0 -51.5q-2 -6 -2 -24q-13 -412 -24 -551q-5 -67 -64 -107q-123 -83 -309 -83q-20 0 -41 1q-52 3 -61 58q-15 78 -22 173.5t-8 161t-1 189.5v7q0 40 -8 200q-3 23 4.5 31t29.5 8q12 -1 62.5 4.5t62.5 -2.5 q15 -6 31 10q2 2 8.5 10t7 10.5t3.5 11t-3 13.5q-20 41 -59 41h-6q-30 -1 -84.5 -4t-99 -5t-84.5 -3q-52 -5 -52 -43zM852 146q0 16 2 29.5t4 28.5t2 23v47v95q-2 92 -2 120q1 71 16 392q0 2 0.5 10.5t1.5 11.5t3.5 8.5t8.5 6.5h6h7q5 -1 16.5 -2.5t18 -3.5t12.5 -9.5 t6 -21.5v-222q1 -29 10 -195q6 -115 6 -192q0 -34 -1 -61q0 -53 -8 -76q-4 -12 -9 -18t-8.5 -8t-14 -5t-18.5 -6q-19 -6 -31 -7h-2q-10 1 -16 9q-6 10 -8 20q-2 8 -2 20v6z" />
<glyph unicode="v" horiz-adv-x="1284" d="M63 971q-2 -8 -2 -16q-1 -11 3 -19q6 -16 21.5 -16.5t26.5 -5t18.5 -15.5t10.5 -16.5t8.5 -23t6.5 -19.5q219 -627 260 -742q7 -18 3.5 -29t-22.5 -20q-26 -10 -26 -33.5t24 -38.5q17 -11 40 -11q7 0 14 1q78 8 114 8h23q139 0 280 33q23 5 34.5 22.5t4.5 39.5 q-12 36 -54 36h-7q-38 -2 -44 7.5t11 44.5q23 51 51 118q86 191 127 320q4 13 37 120.5t55 162.5q5 14 12 23t30.5 17t62.5 9q21 0 33 28q4 8 4 16q0 10 -8 20q-14 16 -35 24q-15 6 -45 2q-15 -1 -46 -1t-47 -1l-94 -6q-24 -2 -37.5 -11t-9.5 -34q3 -22 24.5 -40t39.5 -12 q26 8 28.5 -1t-6.5 -27q-5 -17 -36 -123t-50 -160q-50 -143 -186 -442q-4 -9 -7 -12.5t-6.5 -1t-5 4.5t-6.5 9q-28 54 -65 170q-29 95 -87 286.5t-87 286.5q-9 32 22 39q10 1 30 1t29 1q33 0 43 10q27 27 17 45q-20 39 -60 39q-9 -1 -33 -4.5t-38 -3.5q-40 -1 -119.5 -2 t-118.5 -2q-63 0 -96 -2q-51 0 -64 -53zM225 928q5 6 45 8h23q9 2 17 2q14 0 24 -8q16 -13 28 -43q32 -88 78.5 -253t65.5 -224q7 -21 23.5 -73t26 -80.5t25.5 -70t33 -75.5q9 -19 9 -28q1 -4 -1 -6q-4 -8 -36 -11q-6 -1 -12 -1q-53 0 -70 52q-29 87 -162 461 q-24 69 -111 305q-8 26 -8 37q0 6 2 8z" />
<glyph unicode="w" horiz-adv-x="1841" d="M61 985q0 -50 50 -53q1 0 5 0.5t6.5 0t6 -1.5t6 -3.5t4.5 -7.5q34 -100 121 -340q30 -87 87.5 -246t80.5 -225q12 -34 7 -40t-42 -1h-10q-43 0 -53 -31q-6 -17 10 -38.5t39 -25.5q10 -2 31 -2q114 7 309 41q36 6 43 39q9 26 -21 39q-12 5 -16.5 16.5t2.5 22.5q6 8 11 19 t9.5 25t6.5 20q9 22 34 82.5t37.5 91.5t31 80t32.5 90q6 16 35.5 108.5t50.5 140.5q1 2 4.5 10t7.5 11.5t10 3.5q5 0 8.5 -3.5t6 -10.5t4.5 -9q9 -17 30.5 -57.5t34.5 -62.5q12 -21 40.5 -66t47.5 -80t31 -71l105 -285q19 -50 13.5 -60t-56.5 -22q-13 -3 -21 -5.5 t-14.5 -12.5t-3.5 -25q6 -39 49 -39l14 -2q73 4 203 31q32 8 39 43q5 26 -29 41q-5 2 -15.5 7t-15.5 7q-6 1 -9 2t-5 4.5t2 9.5q7 14 11.5 40.5t7.5 35.5q21 65 77.5 266t96.5 308q15 40 32.5 66t28.5 34.5t27 17t20 11.5q1 1 3.5 2.5t3.5 2.5t3.5 2.5t4 2.5t3 3t2.5 3.5 t2 3.5t1.5 4t0.5 4.5t-1 5.5q-3 27 -37 27h-12q-26 0 -69.5 -3t-70.5 -3h-12h-20q-10 1 -18 1q-73 0 -75 -38q0 -43 37 -51q31 -7 53 -4q25 3 30 -8.5t-3 -30.5q-41 -108 -98 -310t-84 -282q-1 -3 -2.5 -11.5t-3.5 -13.5t-6 -6q-7 0 -11 4.5t-7.5 13.5t-4.5 11l-6 18 q-9 24 -28 76.5t-34 92t-32 75.5q-26 57 -88 159.5t-86 151.5q-25 49 -25 68q-1 5 1 7q8 14 77 20q19 2 33 9.5t14 20.5q0 17 -12.5 32.5t-32.5 16.5q-15 1 -38 1q-29 0 -71 -2q-34 -1 -60 -1q-31 0 -50 2q-37 0 -39 -28q-7 -38 20 -49q32 -12 15 -47q-47 -99 -68 -177 q-21 -75 -51 -155.5t-70.5 -178.5t-60.5 -151q-1 -2 -2.5 -6.5t-2.5 -7t-3 -5.5t-4 -4.5t-5 -1.5q-10 0 -20 25q-82 242 -119 363q-5 16 -15.5 54t-17 58.5t-16.5 52t-20 58t-21 51.5q-18 42 -18 57q0 5 2 7q6 10 67 14q1 0 7.5 0.5t9 1t8 1.5t8.5 3t6.5 5t6 7t3.5 10 q2 8 2 15q0 30 -30 43q-24 12 -39 14q-28 3 -68 3q-46 0 -107 -4q-71 -5 -118 -5q-30 0 -51 2q-23 3 -39 -8t-17 -33zM232 910q0 4 2 6q2 3 10 4l13.5 4.5t16.5 4.5h2q4 0 12 -3q8 -4 15 -15q71 -120 111 -270q63 -230 147 -461q4 -13 21 -43q9 -18 12 -28q1 -3 1 -5 q1 -6 -5 -10q-8 -6 -15.5 -7t-29.5 -3q-4 -1 -7 -1q-16 0 -22 21q-26 83 -59.5 177t-75.5 207t-64 176q-8 24 -22 70t-26.5 82.5t-26.5 68.5q-1 2 -4 7l-4 8t-2 10z" />
<glyph unicode="x" horiz-adv-x="1140" d="M61 987q-1 -9 2 -15t7.5 -8.5t12.5 -6t11 -5.5q23 -8 31 -18q59 -92 111 -186q29 -52 106.5 -164t110.5 -176q7 -13 9.5 -18.5t2 -16t-7.5 -19.5q-132 -167 -168 -217q-31 -45 -65 -66q-26 -16 -59 -16q-11 0 -24 2q-17 3 -30 -8.5t-15 -30.5q-1 -9 4 -16t11 -9.5 t18 -6.5q30 -10 61 -10l15 1q10 0 62.5 3.5t62.5 -0.5q27 -6 47 20q16 19 -8 43q-4 3 -6 6.5t-3.5 6t-1.5 6.5v6t1.5 6t2.5 6l3.5 7l3.5 7q19 31 61.5 83.5t58.5 76.5q15 23 26 23t24 -25q11 -20 34.5 -66t36.5 -69q14 -21 13 -35.5t-25 -26.5q-18 -9 -23.5 -19.5t2 -21 t25.5 -18.5q55 -25 107 -25q26 1 90 7q49 5 82 4h18q77 -5 92 -5q37 0 45 21q8 27 -18 49q-7 6 -23 13.5t-20 9.5q-2 1 -9 2.5t-11 3t-8.5 5t-6.5 9.5q-6 14 -16.5 31t-16 25.5t-22 30.5l-19.5 26q-34 51 -168 270q-13 18 -13 37q0 17 11 33q25 34 64 98q23 39 87 123.5 t89 134.5q33 68 96 68h8.5h11t10 1t9.5 3.5t5.5 7.5t2.5 12q0 44 -47 58q-10 3 -20 3t-21 -3q-33 -6 -160 -11q-36 0 -59 -41q-4 -11 1 -17t19 -9.5t17 -5.5q7 -7 14 -7q21 -4 24 -14t-9 -29q-18 -27 -60 -87.5t-72.5 -107t-56.5 -91.5q-18 -29 -26.5 -28.5t-26.5 28.5 q-118 213 -154 274q-11 17 -10 29.5t17 23.5q15 9 16 24.5t-6 29.5q-8 22 -43 22q-30 -1 -100.5 -7.5t-101 -6.5t-101.5 6q-17 3 -32 -8t-20 -29zM238 919q0 4 4 7q3 5 8.5 6t13 0t10.5 0q11 2 17 2h1q6 0 12 -6q8 -6 11 -9.5t8.5 -11t8.5 -10.5q17 -21 32.5 -44t32 -51 t26.5 -46.5t28.5 -53.5t25.5 -49q11 -22 36 -60t34 -52q18 -31 6 -49q-2 -2 -4.5 -7l-4 -8t-5.5 -6t-9 -4q-6 0 -9.5 3.5t-6 11t-4.5 10.5q-26 41 -103 152.5t-114 176.5q-5 9 -18.5 32.5t-20.5 37.5q-1 2 -5.5 7.5t-6.5 8.5q-4 6 -4 12zM590 346q-5 10 -5 20q0 16 13 33 q12 15 22 15t19 -15q4 -6 13.5 -17t13.5 -17q22 -42 47.5 -83t67.5 -104t53 -80q7 -11 7 -18q0 -11 -16 -14q-5 -1 -13 -1q-18 0 -46 7q-49 15 -78 75q-81 167 -98 199z" />
<glyph unicode="y" horiz-adv-x="1388" d="M74 949q11 -12 30 -9q31 4 48 -8.5t28 -44.5q13 -39 54.5 -103t50.5 -82q17 -30 43 -89t39 -83q184 -342 251 -497q16 -41 16 -76q0 -38 -18 -70q-83 -137 -131 -278q-9 -27 -39 -33q-22 -2 -63 -10t-57 -10q-34 -5 -37 -41q-1 -14 14 -20.5t49 -6.5t71 2t99 5t115 3 q34 0 60 15.5t8 46.5q-16 31 -53 31q-7 0 -15 -1q-24 -4 -30.5 5t-0.5 32q17 57 49 115q101 187 187 397q35 81 75 171t92 203.5t78 170.5q47 109 95 211q20 37 37 47q1 0 21 5t38.5 10.5t33.5 16.5t15 23v2q-2 16 -17 30q-13 13 -28 13h-2l-217 -20q-51 0 -78 -2 q-35 -5 -35 -41v-8q4 -40 34 -40q3 0 7 1q11 1 33.5 2t32.5 2q21 3 24.5 -5.5t-6.5 -25.5q-33 -56 -79.5 -166t-67.5 -151q-25 -51 -119 -262q-3 -8 -5 -12.5t-7 -9t-11 -3.5q-6 0 -9.5 3t-6 12t-2.5 10q-20 42 -81.5 146.5t-84.5 166.5q-13 33 -50.5 100.5t-61.5 126.5 q-23 56 -23 103v4q0 17 -12 29t-29 14q-111 2 -328 2q-37 0 -37 -32q0 -23 13 -37zM290 924q5 6 34 6q2 1 5 1l31 -22q82 -125 125 -245q55 -146 125 -252q29 -44 67.5 -134t51.5 -116q3 -7 3 -14q0 -11 -7 -21q0 -1 -3 -7t-6.5 -8.5t-8.5 -2.5q-10 0 -15 16 q-37 92 -124.5 254.5t-121.5 238.5q-21 47 -75.5 135.5t-75.5 137.5q-7 17 -7 26q0 4 2 7z" />
<glyph unicode="z" horiz-adv-x="811" d="M70 936q8 -8 14 -8t20.5 1t16.5 1h16q91 0 289 20q51 4 56 -2.5t-17 -50.5q-1 -4 -4 -11.5t-4 -11.5q-128 -312 -142 -346q-42 -96 -119.5 -271.5t-97.5 -221.5q-14 -34 -5 -46.5t46 -11.5q30 -1 100 1q52 1 97 2h28q55 0 107 -5l160 13q5 1 40.5 2t53.5 8q19 6 25 25 q3 18 -21 26q-49 27 -87 27q-10 0 -19 -2q-23 -3 -47.5 -5t-52 -2h-46t-51.5 1.5t-47 1.5q-20 0 -24.5 6.5t3.5 23.5q38 75 66 140q17 38 45.5 114.5t44.5 112.5q16 38 42.5 113.5t41.5 111.5q16 39 45 118t45 118q10 24 10 44q0 22 -12 38q-23 30 -75 30h-7 q-73 -1 -151 -5.5t-182 -12t-150 -10.5q-29 -2 -45 -16t-15 -35q0 -17 9 -25zM202 74q-3 3 -3 10q0 9 6 25q93 232 129 305q25 49 51 109t41.5 102t42.5 116t39 107q4 12 18.5 39.5t18.5 44.5q5 20 25 21h5q17 0 29 -5q9 -1 12 -6q2 -4 2 -7q0 -4 -5 -13q-4 -7 -5 -9 q-193 -464 -303 -755q-5 -15 -16.5 -38.5t-14.5 -29.5q-12 -24 -36 -24q-30 0 -36 8z" />
<glyph unicode="{" horiz-adv-x="772" d="M64 46.5q11 -42.5 55 -79.5q49 -40 149 -47q96 -6 185 18.5t122 77.5q21 33 4.5 51t-48 17t-56.5 -6q-19 -6 -49.5 -18t-52.5 -20t-49 -15t-54 -6.5t-53 8.5q-33 12 -45.5 32t-5.5 44t20.5 45t32.5 42q10 11 38.5 41t41 46.5t30.5 44t24 55.5t3 59q-1 7 -6.5 23t-10 30 t-4.5 27.5t9 18.5q13 9 25 21t27 30t22 26q46 46 22 109q-41 117 -69 170q-6 12 -20.5 33.5t-23.5 40.5t-10 39q-2 60 47 121.5t116.5 100t127.5 44.5q23 4 74 20q24 9 27.5 29t-15.5 37q-19 19 -43 16q-110 -20 -133 -26q-78 -23 -150 -85.5t-110 -136.5q-19 -38 -23.5 -77 t8.5 -82t24.5 -71.5t38.5 -79.5t36 -71q15 -31 11.5 -48t-29.5 -42q-44 -41 -78 -57q-12 -6 -25 -14.5t-27.5 -19t-23.5 -15.5q-28 -17 -18 -55q5 -19 14.5 -27.5t30.5 -11.5l30 -7q24 -3 29.5 -9.5t-0.5 -26.5q-7 -27 -20 -43q-14 -22 -53 -68.5t-64 -82.5t-45.5 -81.5 t-9.5 -88z" />
<glyph unicode="}" horiz-adv-x="772" d="M61.5 1298.5q-3.5 19.5 14.5 36.5q22 22 45 17q69 -9 133 -27q79 -23 151 -85t109 -136q19 -38 23.5 -76.5t-8.5 -82.5t-24.5 -71.5t-38.5 -79t-36 -69.5q-15 -32 -11 -49.5t30 -40.5q39 -39 77 -60q12 -5 24.5 -12.5t28.5 -19t23 -15.5q28 -20 19 -55q-4 -20 -14 -28 t-32 -11q-3 -1 -9.5 -2.5t-11.5 -2.5t-9 -1q-23 -3 -29 -10t-2 -27q5 -20 23 -45q13 -20 43 -56t53.5 -65t45.5 -68t29 -72t-5.5 -70t-49.5 -68q-45 -37 -149 -47q-95 -6 -185 19.5t-122 76.5q-16 27 -10 42t25.5 20.5t42.5 5t42 -6.5q20 -6 49.5 -17.5t52 -19.5t49.5 -15 t54 -6.5t53 9.5q33 11 45.5 31t5.5 44t-20.5 45t-32.5 42q-8 10 -38 41.5t-42 47.5t-30 44t-24 55.5t-3 57.5q1 7 6.5 23.5l10 30t4.5 27t-9 19.5q-17 12 -43.5 42t-30.5 34q-45 48 -22 108q2 6 14 40.5t17 48t15.5 38t20.5 43.5q6 11 22 34t24.5 41.5t9.5 37.5q1 46 -28 94 t-73 84t-95.5 60.5t-94.5 29.5q-29 2 -76 21q-23 7 -26.5 26.5z" />
<glyph unicode="&#xad;" d="M66 641q9 -27 21.5 -36t41.5 -9q187 4 281 -6q8 -1 49 4q27 4 45.5 25t23.5 49q3 31 -13 44.5t-44 10.5q-62 -8 -199 -4q-15 -1 -81 0t-85 -6q-28 -6 -38.5 -26t-1.5 -46z" />
<glyph unicode="&#x2dc;" horiz-adv-x="960" d="M61 1034q-3 -46 27 -55q32 -6 41 39q18 67 61 119q4 5 15 19t19.5 24t21.5 24t24 21.5t24 14t25 5t23 -9.5q21 -17 51 -57t45 -54q75 -75 148 -94q30 -7 53 -4q51 4 102 36.5t90 76.5q54 61 66 131q7 41 -4 71q-24 74 -57 41q-22 -21 -40 -75t-32 -74q-41 -57 -102 -78 q-65 -23 -129.5 20.5t-102.5 110.5q-9 16 -49 43q-22 12 -45.5 13.5t-41.5 -3t-41.5 -18.5t-36.5 -24t-36 -29q-49 -40 -80 -103t-39 -131z" />
<glyph unicode="&#x2000;" horiz-adv-x="768" />
<glyph unicode="&#x2001;" horiz-adv-x="1537" />
<glyph unicode="&#x2002;" horiz-adv-x="768" />
<glyph unicode="&#x2003;" horiz-adv-x="1537" />
<glyph unicode="&#x2004;" horiz-adv-x="512" />
<glyph unicode="&#x2005;" horiz-adv-x="384" />
<glyph unicode="&#x2006;" horiz-adv-x="256" />
<glyph unicode="&#x2007;" horiz-adv-x="256" />
<glyph unicode="&#x2008;" horiz-adv-x="192" />
<glyph unicode="&#x2009;" horiz-adv-x="307" />
<glyph unicode="&#x200a;" horiz-adv-x="85" />
<glyph unicode="&#x2010;" d="M66 641q9 -27 21.5 -36t41.5 -9q187 4 281 -6q8 -1 49 4q27 4 45.5 25t23.5 49q3 31 -13 44.5t-44 10.5q-62 -8 -199 -4q-15 -1 -81 0t-85 -6q-28 -6 -38.5 -26t-1.5 -46z" />
<glyph unicode="&#x2011;" d="M66 641q9 -27 21.5 -36t41.5 -9q187 4 281 -6q8 -1 49 4q27 4 45.5 25t23.5 49q3 31 -13 44.5t-44 10.5q-62 -8 -199 -4q-15 -1 -81 0t-85 -6q-28 -6 -38.5 -26t-1.5 -46z" />
<glyph unicode="&#x2012;" d="M66 641q9 -27 21.5 -36t41.5 -9q187 4 281 -6q8 -1 49 4q27 4 45.5 25t23.5 49q3 31 -13 44.5t-44 10.5q-62 -8 -199 -4q-15 -1 -81 0t-85 -6q-28 -6 -38.5 -26t-1.5 -46z" />
<glyph unicode="&#x2013;" horiz-adv-x="1144" d="M70 641q20 -27 47.5 -36t90.5 -9q411 4 617 -6q18 -1 108 4q59 4 99.5 25t51.5 49q7 31 -28.5 44.5t-96.5 10.5q-136 -8 -437 -4q-33 -1 -177.5 0t-186.5 -6q-62 -6 -85 -26t-3 -46z" />
<glyph unicode="&#x2014;" horiz-adv-x="2169" d="M79 641q40 -27 94.5 -36t182.5 -9q820 4 1233 -6q35 -1 215 4q119 4 200 25t103 49q13 31 -57 44.5t-193 10.5q-272 -8 -874 -4q-65 -1 -355 0t-373 -6q-123 -6 -169 -26t-7 -46z" />
<glyph unicode="&#x2018;" horiz-adv-x="581" d="M61 1143q1 -72 37.5 -139t100.5 -144q26 -29 75 -26q26 1 55 17t48 32t49 44t41 38q5 4 17 13.5t16 13t11.5 11t7.5 12.5t-0.5 13t-6.5 16.5t-16 18.5t-25.5 36t-31.5 39t-42 13q-66 3 -125 -45q-11 -9 -24.5 -23.5t-21.5 -22.5t-18 -14t-16 -3t-12.5 16t-11.5 39 q-13 63 28.5 142.5t100.5 105.5q2 1 15.5 6.5t20 8.5t16.5 9t15.5 13.5t6.5 15.5q3 18 -15 32.5t-39 20.5q-77 22 -167 -82q-46 -51 -72 -125q-17 -52 -17 -102zM265.5 951q-16.5 12 0.5 48q14 28 47.5 51.5t59.5 22.5q16 -2 30 -25t7 -44q-8 -17 -39 -36t-54 -24 q-35 -5 -51.5 7z" />
<glyph unicode="&#x2019;" horiz-adv-x="581" d="M63 1274.5q0 -5.5 0.5 -13.5t6.5 -16.5t16 -19.5q10 -10 25.5 -35.5t31 -38.5t41.5 -14q66 0 123 47q12 10 29.5 28t26 25.5t19 10t18 -11t14.5 -44.5q13 -62 -29 -142.5t-100 -107.5q-2 -1 -19.5 -8t-25.5 -11t-18 -13t-11 -19q-4 -18 12.5 -32.5t38.5 -22.5 q79 -21 170 84q47 50 70 124q18 52 18 103q-1 73 -37 139t-102 144q-23 30 -74 26q-26 -1 -55.5 -17t-47.5 -31.5t-49 -45t-40 -37.5q-5 -4 -17.5 -13.5t-16 -13l-11 -11t-7.5 -13zM172 1284q8 19 38.5 38t53.5 24q16 2 28 1t21 -7t9 -19t-9 -33q-12 -27 -45 -49.5 t-59 -21.5q-16 2 -30 25t-7 42z" />
<glyph unicode="&#x201c;" horiz-adv-x="929" d="M61 1042q0 -74 32 -139.5t95 -140.5q23 -29 74 -29q47 3 100 34.5t88.5 82t28.5 98.5q-7 52 -46 76.5t-87 18.5t-84 -37q-12 -10 -28.5 -27t-25.5 -24.5t-19.5 -10.5t-18 10.5t-14.5 44.5q-11 48 16.5 115.5t68 122t81.5 90.5q10 8 54.5 28t53.5 40q13 26 0.5 41.5 t-32 21.5t-42.5 6q-54 -1 -103 -34t-83.5 -84t-58 -103t-37.5 -104q-13 -54 -13 -97zM255.5 850.5q-15.5 11.5 0.5 50.5q13 27 46 51t60 21q15 -2 28.5 -25.5t6.5 -42.5q-8 -19 -39 -37.5t-53 -21.5q-34 -7 -49.5 4.5zM410 1184q1 -73 37 -140t100 -143q26 -30 76 -27 q33 2 65.5 22t75.5 60.5t51 47.5q5 5 20 16.5t18.5 15.5t10 13.5t5 15.5t-7 16.5t-17.5 22.5q-10 10 -25.5 36t-31.5 39t-42 13q-65 3 -124 -45q-11 -9 -25 -23.5t-22 -22.5t-18 -14t-16 -3t-12.5 16t-11.5 39q-13 63 28.5 142t100.5 105l15 6q15 6 20.5 9t16.5 9.5t16 14 t6 15.5q3 18 -14.5 33t-38.5 20q-74 21 -168 -82q-46 -51 -72 -125q-16 -49 -16 -102zM614.5 992q-16.5 12 1.5 48q12 28 45.5 51.5t59.5 22.5q16 -2 30 -25.5t7 -44.5q-8 -19 -38 -36.5t-54 -22.5q-35 -5 -51.5 7z" />
<glyph unicode="&#x201d;" horiz-adv-x="929" d="M63 1162.5q0 -8.5 6.5 -17t16.5 -19.5t25.5 -36.5t31 -38.5t41.5 -13q66 0 123 47q12 10 29.5 28t26 25t19 10t18 -10.5t14.5 -43.5q13 -62 -29 -142.5t-100 -107.5q-3 -1 -15.5 -6t-19.5 -8.5t-17 -9.5t-15.5 -12.5t-6.5 -14.5q-4 -20 13 -35.5t38 -20.5q79 -21 170 84 q48 51 70 125q18 52 18 103q-1 71 -37.5 137.5t-101.5 142.5q-24 33 -74 29q-26 -1 -55 -17t-48.5 -33t-48.5 -44t-40 -37q-5 -4 -17.5 -13.5t-16 -13t-11 -11.5t-7.5 -13v-13.5zM172 1186q8 19 39 37.5t53 21.5q21 4 36 1.5t21 -16t-8 -40.5q-12 -27 -45.5 -51t-58.5 -21 q-16 2 -30 25.5t-7 42.5zM449 1284q7 -52 46.5 -76.5t88 -18.5t84.5 36q11 9 24.5 23.5t21.5 22.5t18 14t16.5 3t13 -16t12.5 -39q14 -72 -42.5 -170t-123.5 -158q-10 -10 -55 -29t-53 -40q-16 -36 9 -53t62 -15q44 1 85.5 23t72 56t56.5 78.5t42.5 85.5t26.5 81 q14 49 14 96q0 74 -32 139.5t-95 140.5q-26 32 -73 29q-75 -5 -151.5 -73.5t-67.5 -139.5zM532 1325q7 19 37.5 37.5t55.5 23.5q22 3 36 0t21 -16.5t-8 -40.5q-12 -27 -46.5 -50t-60.5 -22q-16 2 -30 25.5t-5 42.5z" />
<glyph unicode="&#x2022;" horiz-adv-x="501" d="M66 596.5q10 -51.5 45 -84.5q13 -15 45 -35q45 -24 155 -37q22 -5 44 -1.5t38 20.5q36 43 45 112.5t-30 110.5q-7 7 -16.5 13t-16.5 10.5t-19 10t-17.5 8t-20.5 7.5t-18.5 6.5t-20.5 7t-19 5.5q-46 15 -102 4q-22 -4 -45.5 -23.5t-34.5 -40.5q-22 -42 -12 -93.5z" />
<glyph unicode="&#x202f;" horiz-adv-x="307" />
<glyph unicode="&#x205f;" horiz-adv-x="384" />
<glyph unicode="&#x25fc;" horiz-adv-x="1054" d="M0 0v1055h1055v-1055h-1055z" />
</font>
</defs>
</svg>
